<svg width="58" height="56" viewBox="0 0 58 56" fill="none" xmlns="http://www.w3.org/2000/svg">
<path d="M52.4473 18.1818V54.4927M5.25454 54.4927V18.1818M22.7146 54.4927V41.2055C22.7146 37.9982 25.48 35.3636 28.8509 35.3636C32.2218 35.3636 34.9873 37.9982 34.9873 41.2055V54.4927M11.5382 1H46.1473L56.6691 17.8546H37.7691L28.8345 9.3782L19.9 17.8546H1L11.5218 1H11.5382ZM11.4236 24.8909H16.4636V32.0255H11.4236V24.8909ZM11.4236 38.8H16.4636V47.7837H11.4236V38.8ZM41.2382 38.8H46.2782V47.7837H41.2382V38.8ZM41.2382 24.8909H46.2782V32.0255H41.2382V24.8909Z" stroke="#ECB43A" stroke-width="2" stroke-linecap="round" stroke-linejoin="round"/>
</svg>
