<svg width="546" height="337" viewBox="0 0 546 337" fill="none" xmlns="http://www.w3.org/2000/svg">
<line x1="170.5" y1="6.55671e-08" x2="170.5" y2="337" stroke="#ECB43A" stroke-width="3"/>
<line x1="347.5" y1="6.55671e-08" x2="347.5" y2="337" stroke="#ECB43A" stroke-width="3"/>
<line y1="154.5" x2="546" y2="154.5" stroke="#ECB43A" stroke-width="3"/>
<path d="M87.7342 246.825C87.5122 246.818 87.2938 246.814 87.0874 246.813C72.1167 245.471 65.9717 251.98 74.8303 255.791C77.2439 256.707 96.0344 256.126 99.7554 256.126C102.018 256.126 103.877 254.274 103.877 252.011C103.877 246.916 96.9586 243.232 93.2012 240.12C91.1119 238.388 88.6323 236.596 88.2041 234.837C87.7758 233.078 89.397 230.872 89.397 227.345C92.2545 234.66 93.3815 233.63 100.206 240.123C101.755 241.597 104.271 241.604 105.828 240.139C107.385 238.674 107.392 236.292 105.843 234.818L99.7988 229.068C94.219 223.76 94.8242 215.296 89.2479 215.376H70.7522C65.1759 215.294 65.781 223.76 60.2012 229.068L54.1568 234.818C52.6084 236.292 52.6153 238.674 54.1724 240.139C55.7294 241.604 58.2453 241.597 59.7937 240.123C63.65 236.454 69.9181 232.624 70.603 227.345C70.603 230.872 72.2225 233.08 71.7942 234.837C71.3659 236.596 68.8882 238.388 66.7988 240.12C63.0414 243.232 56.123 246.917 56.123 252.011C56.123 254.272 57.9818 256.126 60.2446 256.126H68.5015M79.3177 194C74.6032 194 70.7799 197.792 70.7799 202.467C70.7799 207.143 74.6032 210.935 79.3177 210.935C84.0322 210.935 87.8555 207.143 87.8555 202.467C87.8555 197.792 84.0322 194 79.3177 194Z" stroke="#ECB43A" stroke-width="2" stroke-linecap="round" stroke-linejoin="round"/>
<path d="M39.562 119.116V129H37.966V119.116H39.562ZM45.8053 121.16C46.7013 121.16 47.42 121.449 47.9613 122.028C48.5027 122.607 48.7733 123.433 48.7733 124.506V129H47.1773V124.674C47.1773 123.983 47 123.451 46.6453 123.078C46.2907 122.695 45.8053 122.504 45.1893 122.504C44.5547 122.504 44.046 122.709 43.6633 123.12C43.2807 123.521 43.0893 124.114 43.0893 124.898V129H41.4933V121.286H43.0893V122.98C43.2947 122.401 43.64 121.953 44.1253 121.636C44.6107 121.319 45.1707 121.16 45.8053 121.16ZM53.7338 121.188C54.4338 121.188 55.0312 121.361 55.5258 121.706C56.0205 122.051 56.3658 122.509 56.5618 123.078V118.64H58.1718V129H56.5618V127.208C56.3658 127.777 56.0205 128.235 55.5258 128.58C55.0312 128.925 54.4338 129.098 53.7338 129.098C53.0618 129.098 52.4598 128.939 51.9278 128.622C51.4052 128.305 50.9945 127.847 50.6958 127.25C50.3972 126.653 50.2478 125.948 50.2478 125.136C50.2478 124.333 50.3972 123.633 50.6958 123.036C50.9945 122.439 51.4052 121.981 51.9278 121.664C52.4598 121.347 53.0618 121.188 53.7338 121.188ZM54.2238 122.588C53.5145 122.588 52.9452 122.817 52.5158 123.274C52.0958 123.722 51.8858 124.343 51.8858 125.136C51.8858 125.929 52.0958 126.555 52.5158 127.012C52.9452 127.46 53.5145 127.684 54.2238 127.684C54.6718 127.684 55.0732 127.581 55.4278 127.376C55.7825 127.161 56.0625 126.863 56.2678 126.48C56.4732 126.097 56.5758 125.649 56.5758 125.136C56.5758 124.632 56.4732 124.189 56.2678 123.806C56.0625 123.414 55.7825 123.115 55.4278 122.91C55.0732 122.695 54.6718 122.588 54.2238 122.588ZM63.6151 121.188C64.3618 121.188 65.0338 121.347 65.6311 121.664C66.2284 121.981 66.6951 122.439 67.0311 123.036C67.3671 123.633 67.5351 124.333 67.5351 125.136C67.5351 125.948 67.3671 126.653 67.0311 127.25C66.6951 127.847 66.2284 128.305 65.6311 128.622C65.0338 128.939 64.3618 129.098 63.6151 129.098C62.8684 129.098 62.1964 128.939 61.5991 128.622C61.0111 128.305 60.5444 127.847 60.1991 127.25C59.8631 126.643 59.6951 125.939 59.6951 125.136C59.6951 124.333 59.8631 123.633 60.1991 123.036C60.5444 122.439 61.0111 121.981 61.5991 121.664C62.1964 121.347 62.8684 121.188 63.6151 121.188ZM63.6151 122.574C63.2044 122.574 62.8264 122.667 62.4811 122.854C62.1358 123.041 61.8558 123.33 61.6411 123.722C61.4358 124.105 61.3331 124.576 61.3331 125.136C61.3331 125.705 61.4358 126.181 61.6411 126.564C61.8558 126.947 62.1358 127.231 62.4811 127.418C62.8264 127.605 63.2044 127.698 63.6151 127.698C64.0258 127.698 64.4038 127.605 64.7491 127.418C65.0944 127.231 65.3698 126.947 65.5751 126.564C65.7898 126.181 65.8971 125.705 65.8971 125.136C65.8971 124.576 65.7898 124.105 65.5751 123.722C65.3698 123.33 65.0944 123.041 64.7491 122.854C64.4038 122.667 64.0258 122.574 63.6151 122.574ZM72.5975 121.188C73.3442 121.188 74.0162 121.347 74.6135 121.664C75.2108 121.981 75.6775 122.439 76.0135 123.036C76.3495 123.633 76.5175 124.333 76.5175 125.136C76.5175 125.948 76.3495 126.653 76.0135 127.25C75.6775 127.847 75.2108 128.305 74.6135 128.622C74.0162 128.939 73.3442 129.098 72.5975 129.098C71.8508 129.098 71.1788 128.939 70.5815 128.622C69.9935 128.305 69.5268 127.847 69.1815 127.25C68.8455 126.643 68.6775 125.939 68.6775 125.136C68.6775 124.333 68.8455 123.633 69.1815 123.036C69.5268 122.439 69.9935 121.981 70.5815 121.664C71.1788 121.347 71.8508 121.188 72.5975 121.188ZM72.5975 122.574C72.1868 122.574 71.8088 122.667 71.4635 122.854C71.1182 123.041 70.8382 123.33 70.6235 123.722C70.4182 124.105 70.3155 124.576 70.3155 125.136C70.3155 125.705 70.4182 126.181 70.6235 126.564C70.8382 126.947 71.1182 127.231 71.4635 127.418C71.8088 127.605 72.1868 127.698 72.5975 127.698C73.0082 127.698 73.3862 127.605 73.7315 127.418C74.0768 127.231 74.3522 126.947 74.5575 126.564C74.7722 126.181 74.8795 125.705 74.8795 125.136C74.8795 124.576 74.7722 124.105 74.5575 123.722C74.3522 123.33 74.0768 123.041 73.7315 122.854C73.3862 122.667 73.0082 122.574 72.5975 122.574ZM79.6479 122.798C79.9093 122.294 80.2826 121.897 80.7679 121.608C81.2533 121.309 81.8133 121.16 82.4479 121.16V122.896H81.9719C81.2719 122.896 80.7073 123.069 80.2779 123.414C79.8579 123.75 79.6479 124.31 79.6479 125.094V129H78.0519V121.286H79.6479V122.798ZM90.019 121.188C90.719 121.188 91.3163 121.361 91.811 121.706C92.3057 122.051 92.6557 122.509 92.861 123.078V121.286H94.457V129.084C94.457 129.803 94.3077 130.437 94.009 130.988C93.7197 131.548 93.2997 131.987 92.749 132.304C92.1983 132.621 91.545 132.78 90.789 132.78C89.7063 132.78 88.829 132.523 88.157 132.01C87.4943 131.497 87.079 130.801 86.911 129.924H88.493C88.6237 130.381 88.8757 130.736 89.249 130.988C89.6223 131.249 90.0983 131.38 90.677 131.38C91.3117 131.38 91.8343 131.184 92.245 130.792C92.6557 130.4 92.861 129.831 92.861 129.084V127.208C92.6557 127.777 92.3057 128.235 91.811 128.58C91.3163 128.925 90.719 129.098 90.019 129.098C89.347 129.098 88.745 128.939 88.213 128.622C87.6903 128.305 87.2797 127.847 86.981 127.25C86.6823 126.653 86.533 125.948 86.533 125.136C86.533 124.333 86.6823 123.633 86.981 123.036C87.2797 122.439 87.6903 121.981 88.213 121.664C88.745 121.347 89.347 121.188 90.019 121.188ZM90.509 122.588C89.7997 122.588 89.2303 122.817 88.801 123.274C88.381 123.722 88.171 124.343 88.171 125.136C88.171 125.929 88.381 126.555 88.801 127.012C89.2303 127.46 89.7997 127.684 90.509 127.684C90.957 127.684 91.3583 127.581 91.713 127.376C92.0677 127.161 92.3477 126.863 92.553 126.48C92.7583 126.097 92.861 125.649 92.861 125.136C92.861 124.632 92.7583 124.189 92.553 123.806C92.3477 123.414 92.0677 123.115 91.713 122.91C91.3583 122.695 90.957 122.588 90.509 122.588ZM99.4663 121.188C100.166 121.188 100.764 121.361 101.258 121.706C101.753 122.051 102.103 122.509 102.308 123.078V121.286H103.904V129H102.308V127.208C102.103 127.777 101.753 128.235 101.258 128.58C100.764 128.925 100.166 129.098 99.4663 129.098C98.7943 129.098 98.1923 128.939 97.6603 128.622C97.1376 128.305 96.7269 127.847 96.4283 127.25C96.1296 126.653 95.9803 125.948 95.9803 125.136C95.9803 124.333 96.1296 123.633 96.4283 123.036C96.7269 122.439 97.1376 121.981 97.6603 121.664C98.1923 121.347 98.7943 121.188 99.4663 121.188ZM99.9563 122.588C99.2469 122.588 98.6776 122.817 98.2483 123.274C97.8283 123.722 97.6183 124.343 97.6183 125.136C97.6183 125.929 97.8283 126.555 98.2483 127.012C98.6776 127.46 99.2469 127.684 99.9563 127.684C100.404 127.684 100.806 127.581 101.16 127.376C101.515 127.161 101.795 126.863 102 126.48C102.206 126.097 102.308 125.649 102.308 125.136C102.308 124.632 102.206 124.189 102 123.806C101.795 123.414 101.515 123.115 101.16 122.91C100.806 122.695 100.404 122.588 99.9563 122.588ZM115.466 121.16C116.38 121.16 117.108 121.449 117.65 122.028C118.2 122.607 118.476 123.433 118.476 124.506V129H116.88V124.674C116.88 124.002 116.712 123.484 116.376 123.12C116.04 122.747 115.578 122.56 114.99 122.56C114.364 122.56 113.865 122.761 113.492 123.162C113.128 123.554 112.946 124.133 112.946 124.898V129H111.35V124.674C111.35 124.002 111.182 123.484 110.846 123.12C110.51 122.747 110.048 122.56 109.46 122.56C108.834 122.56 108.335 122.761 107.962 123.162C107.598 123.554 107.416 124.133 107.416 124.898V129H105.82V121.286H107.416V122.896C107.612 122.336 107.938 121.907 108.396 121.608C108.853 121.309 109.39 121.16 110.006 121.16C110.65 121.16 111.205 121.319 111.672 121.636C112.148 121.953 112.493 122.411 112.708 123.008C112.932 122.429 113.291 121.977 113.786 121.65C114.28 121.323 114.84 121.16 115.466 121.16ZM127.507 124.772C127.507 125.033 127.488 125.262 127.451 125.458H121.515C121.543 126.251 121.762 126.839 122.173 127.222C122.584 127.605 123.092 127.796 123.699 127.796C124.231 127.796 124.679 127.661 125.043 127.39C125.416 127.119 125.645 126.76 125.729 126.312H127.437C127.334 126.853 127.12 127.334 126.793 127.754C126.466 128.174 126.042 128.505 125.519 128.748C124.996 128.981 124.413 129.098 123.769 129.098C123.022 129.098 122.36 128.939 121.781 128.622C121.212 128.305 120.764 127.847 120.437 127.25C120.11 126.653 119.947 125.948 119.947 125.136C119.947 124.333 120.11 123.633 120.437 123.036C120.764 122.439 121.212 121.981 121.781 121.664C122.36 121.347 123.022 121.188 123.769 121.188C124.525 121.188 125.183 121.347 125.743 121.664C126.312 121.972 126.746 122.401 127.045 122.952C127.353 123.493 127.507 124.1 127.507 124.772ZM125.897 124.73C125.916 124.226 125.827 123.806 125.631 123.47C125.444 123.125 125.183 122.873 124.847 122.714C124.52 122.546 124.161 122.462 123.769 122.462C123.144 122.462 122.621 122.653 122.201 123.036C121.781 123.419 121.552 123.983 121.515 124.73H125.897ZM131.582 121.188C132.487 121.188 133.211 121.421 133.752 121.888C134.303 122.345 134.639 122.961 134.76 123.736H133.248C133.183 123.316 133.001 122.98 132.702 122.728C132.413 122.467 132.025 122.336 131.54 122.336C131.139 122.336 130.826 122.434 130.602 122.63C130.387 122.817 130.28 123.073 130.28 123.4C130.28 123.643 130.359 123.839 130.518 123.988C130.677 124.137 130.873 124.254 131.106 124.338C131.349 124.422 131.689 124.515 132.128 124.618C132.707 124.749 133.173 124.884 133.528 125.024C133.892 125.164 134.2 125.388 134.452 125.696C134.713 125.995 134.844 126.405 134.844 126.928C134.844 127.572 134.597 128.095 134.102 128.496C133.617 128.897 132.959 129.098 132.128 129.098C131.167 129.098 130.387 128.874 129.79 128.426C129.202 127.978 128.847 127.353 128.726 126.55H130.28C130.327 126.97 130.513 127.311 130.84 127.572C131.167 127.833 131.596 127.964 132.128 127.964C132.511 127.964 132.809 127.866 133.024 127.67C133.248 127.465 133.36 127.208 133.36 126.9C133.36 126.629 133.276 126.415 133.108 126.256C132.94 126.097 132.73 125.976 132.478 125.892C132.226 125.799 131.881 125.705 131.442 125.612C130.882 125.481 130.425 125.351 130.07 125.22C129.725 125.089 129.426 124.879 129.174 124.59C128.931 124.291 128.81 123.89 128.81 123.386C128.81 122.733 129.053 122.205 129.538 121.804C130.033 121.393 130.714 121.188 131.582 121.188Z" fill="white"/>
<path d="M50.428 280.116L47.138 286.402V290H45.528V286.402L42.224 280.116H44.072L46.34 284.694L48.608 280.116H50.428ZM55.1483 282.188C55.895 282.188 56.567 282.347 57.1643 282.664C57.7616 282.981 58.2283 283.439 58.5643 284.036C58.9003 284.633 59.0683 285.333 59.0683 286.136C59.0683 286.948 58.9003 287.653 58.5643 288.25C58.2283 288.847 57.7616 289.305 57.1643 289.622C56.567 289.939 55.895 290.098 55.1483 290.098C54.4016 290.098 53.7296 289.939 53.1323 289.622C52.5443 289.305 52.0776 288.847 51.7323 288.25C51.3963 287.643 51.2283 286.939 51.2283 286.136C51.2283 285.333 51.3963 284.633 51.7323 284.036C52.0776 283.439 52.5443 282.981 53.1323 282.664C53.7296 282.347 54.4016 282.188 55.1483 282.188ZM55.1483 283.574C54.7376 283.574 54.3596 283.667 54.0143 283.854C53.669 284.041 53.389 284.33 53.1743 284.722C52.969 285.105 52.8663 285.576 52.8663 286.136C52.8663 286.705 52.969 287.181 53.1743 287.564C53.389 287.947 53.669 288.231 54.0143 288.418C54.3596 288.605 54.7376 288.698 55.1483 288.698C55.559 288.698 55.937 288.605 56.2823 288.418C56.6276 288.231 56.903 287.947 57.1083 287.564C57.323 287.181 57.4303 286.705 57.4303 286.136C57.4303 285.576 57.323 285.105 57.1083 284.722C56.903 284.33 56.6276 284.041 56.2823 283.854C55.937 283.667 55.559 283.574 55.1483 283.574ZM63.6967 282.188C64.3967 282.188 64.9941 282.361 65.4887 282.706C65.9834 283.051 66.3334 283.509 66.5387 284.078V282.286H68.1347V290.084C68.1347 290.803 67.9854 291.437 67.6867 291.988C67.3974 292.548 66.9774 292.987 66.4267 293.304C65.8761 293.621 65.2227 293.78 64.4667 293.78C63.3841 293.78 62.5067 293.523 61.8347 293.01C61.1721 292.497 60.7567 291.801 60.5887 290.924H62.1707C62.3014 291.381 62.5534 291.736 62.9267 291.988C63.3001 292.249 63.7761 292.38 64.3547 292.38C64.9894 292.38 65.5121 292.184 65.9227 291.792C66.3334 291.4 66.5387 290.831 66.5387 290.084V288.208C66.3334 288.777 65.9834 289.235 65.4887 289.58C64.9941 289.925 64.3967 290.098 63.6967 290.098C63.0247 290.098 62.4227 289.939 61.8907 289.622C61.3681 289.305 60.9574 288.847 60.6587 288.25C60.3601 287.653 60.2107 286.948 60.2107 286.136C60.2107 285.333 60.3601 284.633 60.6587 284.036C60.9574 283.439 61.3681 282.981 61.8907 282.664C62.4227 282.347 63.0247 282.188 63.6967 282.188ZM64.1867 283.588C63.4774 283.588 62.9081 283.817 62.4787 284.274C62.0587 284.722 61.8487 285.343 61.8487 286.136C61.8487 286.929 62.0587 287.555 62.4787 288.012C62.9081 288.46 63.4774 288.684 64.1867 288.684C64.6347 288.684 65.0361 288.581 65.3907 288.376C65.7454 288.161 66.0254 287.863 66.2307 287.48C66.4361 287.097 66.5387 286.649 66.5387 286.136C66.5387 285.632 66.4361 285.189 66.2307 284.806C66.0254 284.414 65.7454 284.115 65.3907 283.91C65.0361 283.695 64.6347 283.588 64.1867 283.588ZM73.144 282.188C73.844 282.188 74.4413 282.361 74.936 282.706C75.4307 283.051 75.7807 283.509 75.986 284.078V282.286H77.582V290H75.986V288.208C75.7807 288.777 75.4307 289.235 74.936 289.58C74.4413 289.925 73.844 290.098 73.144 290.098C72.472 290.098 71.87 289.939 71.338 289.622C70.8153 289.305 70.4047 288.847 70.106 288.25C69.8073 287.653 69.658 286.948 69.658 286.136C69.658 285.333 69.8073 284.633 70.106 284.036C70.4047 283.439 70.8153 282.981 71.338 282.664C71.87 282.347 72.472 282.188 73.144 282.188ZM73.634 283.588C72.9247 283.588 72.3553 283.817 71.926 284.274C71.506 284.722 71.296 285.343 71.296 286.136C71.296 286.929 71.506 287.555 71.926 288.012C72.3553 288.46 72.9247 288.684 73.634 288.684C74.082 288.684 74.4833 288.581 74.838 288.376C75.1927 288.161 75.4727 287.863 75.678 287.48C75.8833 287.097 75.986 286.649 75.986 286.136C75.986 285.632 75.8833 285.189 75.678 284.806C75.4727 284.414 75.1927 284.115 74.838 283.91C74.4833 283.695 74.082 283.588 73.634 283.588ZM84.3745 288.754H87.7905V290H82.7785V280.116H84.3745V288.754ZM92.1342 282.188C92.8342 282.188 93.4316 282.361 93.9262 282.706C94.4209 283.051 94.7709 283.509 94.9762 284.078V282.286H96.5722V290H94.9762V288.208C94.7709 288.777 94.4209 289.235 93.9262 289.58C93.4316 289.925 92.8342 290.098 92.1342 290.098C91.4622 290.098 90.8602 289.939 90.3282 289.622C89.8056 289.305 89.3949 288.847 89.0962 288.25C88.7976 287.653 88.6482 286.948 88.6482 286.136C88.6482 285.333 88.7976 284.633 89.0962 284.036C89.3949 283.439 89.8056 282.981 90.3282 282.664C90.8602 282.347 91.4622 282.188 92.1342 282.188ZM92.6242 283.588C91.9149 283.588 91.3456 283.817 90.9162 284.274C90.4962 284.722 90.2862 285.343 90.2862 286.136C90.2862 286.929 90.4962 287.555 90.9162 288.012C91.3456 288.46 91.9149 288.684 92.6242 288.684C93.0722 288.684 93.4736 288.581 93.8282 288.376C94.1829 288.161 94.4629 287.863 94.6682 287.48C94.8736 287.097 94.9762 286.649 94.9762 286.136C94.9762 285.632 94.8736 285.189 94.6682 284.806C94.4629 284.414 94.1829 284.115 93.8282 283.91C93.4736 283.695 93.0722 283.588 92.6242 283.588ZM109.295 282.286L107.153 290H105.389L103.485 284.036L101.553 290H99.8035L97.6615 282.286H99.2715L100.741 288.53L102.673 282.286H104.353L106.313 288.53L107.783 282.286H109.295ZM114.694 282.16C115.59 282.16 116.309 282.449 116.85 283.028C117.391 283.607 117.662 284.433 117.662 285.506V290H116.066V285.674C116.066 284.983 115.889 284.451 115.534 284.078C115.179 283.695 114.694 283.504 114.078 283.504C113.443 283.504 112.935 283.709 112.552 284.12C112.169 284.521 111.978 285.114 111.978 285.898V290H110.382V282.286H111.978V283.98C112.183 283.401 112.529 282.953 113.014 282.636C113.499 282.319 114.059 282.16 114.694 282.16Z" fill="white"/>
<path d="M406.918 292.368C406.918 292.853 406.801 293.306 406.568 293.726C406.335 294.137 405.98 294.468 405.504 294.72C405.028 294.972 404.445 295.098 403.754 295.098C403.082 295.098 402.48 294.981 401.948 294.748C401.416 294.505 400.991 294.169 400.674 293.74C400.357 293.311 400.175 292.816 400.128 292.256H401.836C401.883 292.685 402.065 293.054 402.382 293.362C402.709 293.67 403.143 293.824 403.684 293.824C404.169 293.824 404.543 293.693 404.804 293.432C405.075 293.171 405.21 292.835 405.21 292.424C405.21 292.069 405.112 291.78 404.916 291.556C404.72 291.323 404.477 291.141 404.188 291.01C403.899 290.879 403.502 290.73 402.998 290.562C402.382 290.366 401.878 290.17 401.486 289.974C401.103 289.778 400.777 289.493 400.506 289.12C400.235 288.747 400.1 288.257 400.1 287.65C400.1 287.118 400.231 286.651 400.492 286.25C400.753 285.849 401.127 285.541 401.612 285.326C402.097 285.102 402.657 284.99 403.292 284.99C404.3 284.99 405.098 285.233 405.686 285.718C406.283 286.203 406.624 286.838 406.708 287.622H404.986C404.921 287.249 404.743 286.931 404.454 286.67C404.174 286.399 403.787 286.264 403.292 286.264C402.844 286.264 402.485 286.381 402.214 286.614C401.943 286.838 401.808 287.165 401.808 287.594C401.808 287.93 401.901 288.21 402.088 288.434C402.275 288.649 402.508 288.821 402.788 288.952C403.077 289.073 403.469 289.218 403.964 289.386C404.589 289.582 405.098 289.783 405.49 289.988C405.891 290.184 406.227 290.473 406.498 290.856C406.778 291.239 406.918 291.743 406.918 292.368ZM415.684 290.772C415.684 291.033 415.665 291.262 415.628 291.458H409.692C409.72 292.251 409.939 292.839 410.35 293.222C410.76 293.605 411.269 293.796 411.876 293.796C412.408 293.796 412.856 293.661 413.22 293.39C413.593 293.119 413.822 292.76 413.906 292.312H415.614C415.511 292.853 415.296 293.334 414.97 293.754C414.643 294.174 414.218 294.505 413.696 294.748C413.173 294.981 412.59 295.098 411.946 295.098C411.199 295.098 410.536 294.939 409.958 294.622C409.388 294.305 408.94 293.847 408.614 293.25C408.287 292.653 408.124 291.948 408.124 291.136C408.124 290.333 408.287 289.633 408.614 289.036C408.94 288.439 409.388 287.981 409.958 287.664C410.536 287.347 411.199 287.188 411.946 287.188C412.702 287.188 413.36 287.347 413.92 287.664C414.489 287.972 414.923 288.401 415.222 288.952C415.53 289.493 415.684 290.1 415.684 290.772ZM414.074 290.73C414.092 290.226 414.004 289.806 413.808 289.47C413.621 289.125 413.36 288.873 413.024 288.714C412.697 288.546 412.338 288.462 411.946 288.462C411.32 288.462 410.798 288.653 410.378 289.036C409.958 289.419 409.729 289.983 409.692 290.73H414.074ZM421.537 287.16C422.433 287.16 423.151 287.449 423.693 288.028C424.234 288.607 424.505 289.433 424.505 290.506V295H422.909V290.674C422.909 289.983 422.731 289.451 422.377 289.078C422.022 288.695 421.537 288.504 420.921 288.504C420.286 288.504 419.777 288.709 419.395 289.12C419.012 289.521 418.821 290.114 418.821 290.898V295H417.225V287.286H418.821V288.98C419.026 288.401 419.371 287.953 419.857 287.636C420.342 287.319 420.902 287.16 421.537 287.16ZM426.147 285.046C426.147 284.775 426.241 284.551 426.427 284.374C426.614 284.197 426.861 284.108 427.169 284.108C427.477 284.108 427.725 284.197 427.911 284.374C428.107 284.551 428.205 284.775 428.205 285.046C428.205 285.317 428.107 285.536 427.911 285.704C427.725 285.872 427.477 285.956 427.169 285.956C426.861 285.956 426.614 285.872 426.427 285.704C426.241 285.536 426.147 285.317 426.147 285.046ZM427.967 287.286V295H426.371V287.286H427.967ZM433.427 287.188C434.173 287.188 434.845 287.347 435.443 287.664C436.04 287.981 436.507 288.439 436.843 289.036C437.179 289.633 437.347 290.333 437.347 291.136C437.347 291.948 437.179 292.653 436.843 293.25C436.507 293.847 436.04 294.305 435.443 294.622C434.845 294.939 434.173 295.098 433.427 295.098C432.68 295.098 432.008 294.939 431.411 294.622C430.823 294.305 430.356 293.847 430.011 293.25C429.675 292.643 429.507 291.939 429.507 291.136C429.507 290.333 429.675 289.633 430.011 289.036C430.356 288.439 430.823 287.981 431.411 287.664C432.008 287.347 432.68 287.188 433.427 287.188ZM433.427 288.574C433.016 288.574 432.638 288.667 432.293 288.854C431.947 289.041 431.667 289.33 431.453 289.722C431.247 290.105 431.145 290.576 431.145 291.136C431.145 291.705 431.247 292.181 431.453 292.564C431.667 292.947 431.947 293.231 432.293 293.418C432.638 293.605 433.016 293.698 433.427 293.698C433.837 293.698 434.215 293.605 434.561 293.418C434.906 293.231 435.181 292.947 435.387 292.564C435.601 292.181 435.709 291.705 435.709 291.136C435.709 290.576 435.601 290.105 435.387 289.722C435.181 289.33 434.906 289.041 434.561 288.854C434.215 288.667 433.837 288.574 433.427 288.574ZM440.477 288.798C440.738 288.294 441.112 287.897 441.597 287.608C442.082 287.309 442.642 287.16 443.277 287.16V288.896H442.801C442.101 288.896 441.536 289.069 441.107 289.414C440.687 289.75 440.477 290.31 440.477 291.094V295H438.881V287.286H440.477V288.798ZM452.164 285.018C453.377 285.018 454.385 285.326 455.188 285.942C455.991 286.558 456.532 287.393 456.812 288.448H455.118C454.885 287.851 454.511 287.379 453.998 287.034C453.494 286.679 452.873 286.502 452.136 286.502C451.548 286.502 451.021 286.647 450.554 286.936C450.097 287.225 449.733 287.641 449.462 288.182C449.201 288.714 449.07 289.339 449.07 290.058C449.07 290.767 449.201 291.393 449.462 291.934C449.733 292.466 450.097 292.877 450.554 293.166C451.021 293.455 451.548 293.6 452.136 293.6C452.873 293.6 453.494 293.427 453.998 293.082C454.511 292.727 454.885 292.256 455.118 291.668H456.812C456.532 292.723 455.991 293.558 455.188 294.174C454.385 294.781 453.377 295.084 452.164 295.084C451.231 295.084 450.405 294.874 449.686 294.454C448.967 294.025 448.412 293.432 448.02 292.676C447.628 291.911 447.432 291.038 447.432 290.058C447.432 289.078 447.628 288.21 448.02 287.454C448.412 286.689 448.967 286.091 449.686 285.662C450.405 285.233 451.231 285.018 452.164 285.018ZM458.18 285.046C458.18 284.775 458.274 284.551 458.46 284.374C458.647 284.197 458.894 284.108 459.202 284.108C459.51 284.108 459.758 284.197 459.944 284.374C460.14 284.551 460.238 284.775 460.238 285.046C460.238 285.317 460.14 285.536 459.944 285.704C459.758 285.872 459.51 285.956 459.202 285.956C458.894 285.956 458.647 285.872 458.46 285.704C458.274 285.536 458.18 285.317 458.18 285.046ZM460 287.286V295H458.404V287.286H460ZM465.81 293.614V295H464.83C464.008 295 463.383 294.804 462.954 294.412C462.534 294.011 462.324 293.348 462.324 292.424V288.644H461.218V287.286H462.324V285.368H463.934V287.286H465.796V288.644H463.934V292.452C463.934 292.891 464.013 293.194 464.172 293.362C464.34 293.53 464.629 293.614 465.04 293.614H465.81ZM467.081 285.046C467.081 284.775 467.174 284.551 467.361 284.374C467.548 284.197 467.795 284.108 468.103 284.108C468.411 284.108 468.658 284.197 468.845 284.374C469.041 284.551 469.139 284.775 469.139 285.046C469.139 285.317 469.041 285.536 468.845 285.704C468.658 285.872 468.411 285.956 468.103 285.956C467.795 285.956 467.548 285.872 467.361 285.704C467.174 285.536 467.081 285.317 467.081 285.046ZM468.901 287.286V295H467.305V287.286H468.901ZM471.98 293.656H475.942V295H470.216V293.726L473.968 288.63H470.314V287.286H475.802V288.56L471.98 293.656ZM484.426 290.772C484.426 291.033 484.407 291.262 484.37 291.458H478.434C478.462 292.251 478.681 292.839 479.092 293.222C479.503 293.605 480.011 293.796 480.618 293.796C481.15 293.796 481.598 293.661 481.962 293.39C482.335 293.119 482.564 292.76 482.648 292.312H484.356C484.253 292.853 484.039 293.334 483.712 293.754C483.385 294.174 482.961 294.505 482.438 294.748C481.915 294.981 481.332 295.098 480.688 295.098C479.941 295.098 479.279 294.939 478.7 294.622C478.131 294.305 477.683 293.847 477.356 293.25C477.029 292.653 476.866 291.948 476.866 291.136C476.866 290.333 477.029 289.633 477.356 289.036C477.683 288.439 478.131 287.981 478.7 287.664C479.279 287.347 479.941 287.188 480.688 287.188C481.444 287.188 482.102 287.347 482.662 287.664C483.231 287.972 483.665 288.401 483.964 288.952C484.272 289.493 484.426 290.1 484.426 290.772ZM482.816 290.73C482.835 290.226 482.746 289.806 482.55 289.47C482.363 289.125 482.102 288.873 481.766 288.714C481.439 288.546 481.08 288.462 480.688 288.462C480.063 288.462 479.54 288.653 479.12 289.036C478.7 289.419 478.471 289.983 478.434 290.73H482.816ZM490.279 287.16C491.175 287.16 491.894 287.449 492.435 288.028C492.976 288.607 493.247 289.433 493.247 290.506V295H491.651V290.674C491.651 289.983 491.474 289.451 491.119 289.078C490.764 288.695 490.279 288.504 489.663 288.504C489.028 288.504 488.52 288.709 488.137 289.12C487.754 289.521 487.563 290.114 487.563 290.898V295H485.967V287.286H487.563V288.98C487.768 288.401 488.114 287.953 488.599 287.636C489.084 287.319 489.644 287.16 490.279 287.16ZM497.647 287.188C498.553 287.188 499.276 287.421 499.817 287.888C500.368 288.345 500.704 288.961 500.825 289.736H499.313C499.248 289.316 499.066 288.98 498.767 288.728C498.478 288.467 498.091 288.336 497.605 288.336C497.204 288.336 496.891 288.434 496.667 288.63C496.453 288.817 496.345 289.073 496.345 289.4C496.345 289.643 496.425 289.839 496.583 289.988C496.742 290.137 496.938 290.254 497.171 290.338C497.414 290.422 497.755 290.515 498.193 290.618C498.772 290.749 499.239 290.884 499.593 291.024C499.957 291.164 500.265 291.388 500.517 291.696C500.779 291.995 500.909 292.405 500.909 292.928C500.909 293.572 500.662 294.095 500.167 294.496C499.682 294.897 499.024 295.098 498.193 295.098C497.232 295.098 496.453 294.874 495.855 294.426C495.267 293.978 494.913 293.353 494.791 292.55H496.345C496.392 292.97 496.579 293.311 496.905 293.572C497.232 293.833 497.661 293.964 498.193 293.964C498.576 293.964 498.875 293.866 499.089 293.67C499.313 293.465 499.425 293.208 499.425 292.9C499.425 292.629 499.341 292.415 499.173 292.256C499.005 292.097 498.795 291.976 498.543 291.892C498.291 291.799 497.946 291.705 497.507 291.612C496.947 291.481 496.49 291.351 496.135 291.22C495.79 291.089 495.491 290.879 495.239 290.59C494.997 290.291 494.875 289.89 494.875 289.386C494.875 288.733 495.118 288.205 495.603 287.804C496.098 287.393 496.779 287.188 497.647 287.188ZM440.714 311.858H436.542L435.786 314H434.078L437.718 304.27H439.552L443.178 314H441.47L440.714 311.858ZM440.266 310.626L438.628 306.006L436.99 310.626H440.266ZM445.959 307.798C446.221 307.294 446.594 306.897 447.079 306.608C447.565 306.309 448.125 306.16 448.759 306.16V307.896H448.283C447.583 307.896 447.019 308.069 446.589 308.414C446.169 308.75 445.959 309.31 445.959 310.094V314H444.363V306.286H445.959V307.798ZM457.123 309.772C457.123 310.033 457.105 310.262 457.067 310.458H451.131C451.159 311.251 451.379 311.839 451.789 312.222C452.2 312.605 452.709 312.796 453.315 312.796C453.847 312.796 454.295 312.661 454.659 312.39C455.033 312.119 455.261 311.76 455.345 311.312H457.053C456.951 311.853 456.736 312.334 456.409 312.754C456.083 313.174 455.658 313.505 455.135 313.748C454.613 313.981 454.029 314.098 453.385 314.098C452.639 314.098 451.976 313.939 451.397 313.622C450.828 313.305 450.38 312.847 450.053 312.25C449.727 311.653 449.563 310.948 449.563 310.136C449.563 309.333 449.727 308.633 450.053 308.036C450.38 307.439 450.828 306.981 451.397 306.664C451.976 306.347 452.639 306.188 453.385 306.188C454.141 306.188 454.799 306.347 455.359 306.664C455.929 306.972 456.363 307.401 456.661 307.952C456.969 308.493 457.123 309.1 457.123 309.772ZM455.513 309.73C455.532 309.226 455.443 308.806 455.247 308.47C455.061 308.125 454.799 307.873 454.463 307.714C454.137 307.546 453.777 307.462 453.385 307.462C452.76 307.462 452.237 307.653 451.817 308.036C451.397 308.419 451.169 308.983 451.131 309.73H455.513ZM461.758 306.188C462.458 306.188 463.056 306.361 463.55 306.706C464.045 307.051 464.395 307.509 464.6 308.078V306.286H466.196V314H464.6V312.208C464.395 312.777 464.045 313.235 463.55 313.58C463.056 313.925 462.458 314.098 461.758 314.098C461.086 314.098 460.484 313.939 459.952 313.622C459.43 313.305 459.019 312.847 458.72 312.25C458.422 311.653 458.272 310.948 458.272 310.136C458.272 309.333 458.422 308.633 458.72 308.036C459.019 307.439 459.43 306.981 459.952 306.664C460.484 306.347 461.086 306.188 461.758 306.188ZM462.248 307.588C461.539 307.588 460.97 307.817 460.54 308.274C460.12 308.722 459.91 309.343 459.91 310.136C459.91 310.929 460.12 311.555 460.54 312.012C460.97 312.46 461.539 312.684 462.248 312.684C462.696 312.684 463.098 312.581 463.452 312.376C463.807 312.161 464.087 311.863 464.292 311.48C464.498 311.097 464.6 310.649 464.6 310.136C464.6 309.632 464.498 309.189 464.292 308.806C464.087 308.414 463.807 308.115 463.452 307.91C463.098 307.695 462.696 307.588 462.248 307.588Z" fill="white"/>
<path d="M218.461 281.018C219.674 281.018 220.682 281.326 221.485 281.942C222.288 282.558 222.829 283.393 223.109 284.448H221.415C221.182 283.851 220.808 283.379 220.295 283.034C219.791 282.679 219.17 282.502 218.433 282.502C217.845 282.502 217.318 282.647 216.851 282.936C216.394 283.225 216.03 283.641 215.759 284.182C215.498 284.714 215.367 285.339 215.367 286.058C215.367 286.767 215.498 287.393 215.759 287.934C216.03 288.466 216.394 288.877 216.851 289.166C217.318 289.455 217.845 289.6 218.433 289.6C219.17 289.6 219.791 289.427 220.295 289.082C220.808 288.727 221.182 288.256 221.415 287.668H223.109C222.829 288.723 222.288 289.558 221.485 290.174C220.682 290.781 219.674 291.084 218.461 291.084C217.528 291.084 216.702 290.874 215.983 290.454C215.264 290.025 214.709 289.432 214.317 288.676C213.925 287.911 213.729 287.038 213.729 286.058C213.729 285.078 213.925 284.21 214.317 283.454C214.709 282.689 215.264 282.091 215.983 281.662C216.702 281.233 217.528 281.018 218.461 281.018ZM226.297 280.64V291H224.701V280.64H226.297ZM235.341 283.286V291H233.731V289.32C233.535 289.889 233.194 290.333 232.709 290.65C232.223 290.958 231.659 291.112 231.015 291.112C230.119 291.112 229.4 290.823 228.859 290.244C228.317 289.665 228.047 288.839 228.047 287.766V283.286H229.643V287.598C229.643 288.298 229.82 288.839 230.175 289.222C230.529 289.595 231.015 289.782 231.631 289.782C232.265 289.782 232.774 289.577 233.157 289.166C233.539 288.755 233.731 288.158 233.731 287.374V283.286H235.341ZM241.676 283.188C242.348 283.188 242.945 283.347 243.468 283.664C244 283.981 244.415 284.439 244.714 285.036C245.013 285.633 245.162 286.333 245.162 287.136C245.162 287.948 245.013 288.653 244.714 289.25C244.415 289.847 244 290.305 243.468 290.622C242.945 290.939 242.348 291.098 241.676 291.098C240.976 291.098 240.379 290.925 239.884 290.58C239.389 290.235 239.044 289.777 238.848 289.208V291H237.252V280.64H238.848V285.078C239.044 284.509 239.389 284.051 239.884 283.706C240.379 283.361 240.976 283.188 241.676 283.188ZM241.186 284.588C240.738 284.588 240.337 284.695 239.982 284.91C239.627 285.115 239.347 285.414 239.142 285.806C238.937 286.189 238.834 286.632 238.834 287.136C238.834 287.649 238.937 288.097 239.142 288.48C239.347 288.863 239.627 289.161 239.982 289.376C240.337 289.581 240.738 289.684 241.186 289.684C241.895 289.684 242.465 289.46 242.894 289.012C243.323 288.555 243.538 287.929 243.538 287.136C243.538 286.352 243.323 285.731 242.894 285.274C242.465 284.817 241.895 284.588 241.186 284.588ZM257.835 281.116V291H256.225V286.562H251.577V291H249.981V281.116H251.577V285.26H256.225V281.116H257.835ZM263.298 283.188C264.044 283.188 264.716 283.347 265.314 283.664C265.911 283.981 266.378 284.439 266.714 285.036C267.05 285.633 267.218 286.333 267.218 287.136C267.218 287.948 267.05 288.653 266.714 289.25C266.378 289.847 265.911 290.305 265.314 290.622C264.716 290.939 264.044 291.098 263.298 291.098C262.551 291.098 261.879 290.939 261.282 290.622C260.694 290.305 260.227 289.847 259.882 289.25C259.546 288.643 259.378 287.939 259.378 287.136C259.378 286.333 259.546 285.633 259.882 285.036C260.227 284.439 260.694 283.981 261.282 283.664C261.879 283.347 262.551 283.188 263.298 283.188ZM263.298 284.574C262.887 284.574 262.509 284.667 262.164 284.854C261.818 285.041 261.538 285.33 261.324 285.722C261.118 286.105 261.016 286.576 261.016 287.136C261.016 287.705 261.118 288.181 261.324 288.564C261.538 288.947 261.818 289.231 262.164 289.418C262.509 289.605 262.887 289.698 263.298 289.698C263.708 289.698 264.086 289.605 264.432 289.418C264.777 289.231 265.052 288.947 265.258 288.564C265.472 288.181 265.58 287.705 265.58 287.136C265.58 286.576 265.472 286.105 265.258 285.722C265.052 285.33 264.777 285.041 264.432 284.854C264.086 284.667 263.708 284.574 263.298 284.574ZM275.864 283.286V291H274.254V289.32C274.058 289.889 273.717 290.333 273.232 290.65C272.747 290.958 272.182 291.112 271.538 291.112C270.642 291.112 269.923 290.823 269.382 290.244C268.841 289.665 268.57 288.839 268.57 287.766V283.286H270.166V287.598C270.166 288.298 270.343 288.839 270.698 289.222C271.053 289.595 271.538 289.782 272.154 289.782C272.789 289.782 273.297 289.577 273.68 289.166C274.063 288.755 274.254 288.158 274.254 287.374V283.286H275.864ZM280.31 283.188C281.215 283.188 281.938 283.421 282.48 283.888C283.03 284.345 283.366 284.961 283.488 285.736H281.976C281.91 285.316 281.728 284.98 281.43 284.728C281.14 284.467 280.753 284.336 280.268 284.336C279.866 284.336 279.554 284.434 279.33 284.63C279.115 284.817 279.008 285.073 279.008 285.4C279.008 285.643 279.087 285.839 279.246 285.988C279.404 286.137 279.6 286.254 279.834 286.338C280.076 286.422 280.417 286.515 280.856 286.618C281.434 286.749 281.901 286.884 282.256 287.024C282.62 287.164 282.928 287.388 283.18 287.696C283.441 287.995 283.572 288.405 283.572 288.928C283.572 289.572 283.324 290.095 282.83 290.496C282.344 290.897 281.686 291.098 280.856 291.098C279.894 291.098 279.115 290.874 278.518 290.426C277.93 289.978 277.575 289.353 277.454 288.55H279.008C279.054 288.97 279.241 289.311 279.568 289.572C279.894 289.833 280.324 289.964 280.856 289.964C281.238 289.964 281.537 289.866 281.752 289.67C281.976 289.465 282.088 289.208 282.088 288.9C282.088 288.629 282.004 288.415 281.836 288.256C281.668 288.097 281.458 287.976 281.206 287.892C280.954 287.799 280.608 287.705 280.17 287.612C279.61 287.481 279.152 287.351 278.798 287.22C278.452 287.089 278.154 286.879 277.902 286.59C277.659 286.291 277.538 285.89 277.538 285.386C277.538 284.733 277.78 284.205 278.266 283.804C278.76 283.393 279.442 283.188 280.31 283.188ZM292.34 286.772C292.34 287.033 292.321 287.262 292.284 287.458H286.348C286.376 288.251 286.595 288.839 287.006 289.222C287.417 289.605 287.925 289.796 288.532 289.796C289.064 289.796 289.512 289.661 289.876 289.39C290.249 289.119 290.478 288.76 290.562 288.312H292.27C292.167 288.853 291.953 289.334 291.626 289.754C291.299 290.174 290.875 290.505 290.352 290.748C289.829 290.981 289.246 291.098 288.602 291.098C287.855 291.098 287.193 290.939 286.614 290.622C286.045 290.305 285.597 289.847 285.27 289.25C284.943 288.653 284.78 287.948 284.78 287.136C284.78 286.333 284.943 285.633 285.27 285.036C285.597 284.439 286.045 283.981 286.614 283.664C287.193 283.347 287.855 283.188 288.602 283.188C289.358 283.188 290.016 283.347 290.576 283.664C291.145 283.972 291.579 284.401 291.878 284.952C292.186 285.493 292.34 286.1 292.34 286.772ZM290.73 286.73C290.749 286.226 290.66 285.806 290.464 285.47C290.277 285.125 290.016 284.873 289.68 284.714C289.353 284.546 288.994 284.462 288.602 284.462C287.977 284.462 287.454 284.653 287.034 285.036C286.614 285.419 286.385 285.983 286.348 286.73H290.73Z" fill="white"/>
<path d="M276.447 220.182V256.493M229.255 256.493V220.182M246.715 256.493V243.205C246.715 239.998 249.48 237.364 252.851 237.364C256.222 237.364 258.987 239.998 258.987 243.205V256.493M235.538 203H270.147L280.669 219.855H261.769L252.835 211.378L243.9 219.855H225L235.522 203H235.538ZM235.424 226.891H240.464V234.025H235.424V226.891ZM235.424 240.8H240.464V249.784H235.424V240.8ZM265.238 240.8H270.278V249.784H265.238V240.8ZM265.238 226.891H270.278V234.025H265.238V226.891Z" stroke="#ECB43A" stroke-width="2" stroke-linecap="round" stroke-linejoin="round"/>
<path d="M226.636 257H280.276" stroke="#ECB43A" stroke-width="2" stroke-linecap="round" stroke-linejoin="round"/>
<path d="M253.456 221C255.616 221 257.367 222.751 257.367 224.911C257.367 227.071 255.616 228.822 253.456 228.822C251.296 228.822 249.545 227.071 249.545 224.911C249.545 222.751 251.296 221 253.456 221Z" stroke="#ECB43A" stroke-width="2" stroke-miterlimit="22.93"/>
<path d="M212.06 124.002L216.414 129H214.468L210.562 124.422V129H208.966V119.116H210.562V123.638L214.482 119.116H216.414L212.06 124.002ZM217.383 119.046C217.383 118.775 217.476 118.551 217.663 118.374C217.849 118.197 218.097 118.108 218.405 118.108C218.713 118.108 218.96 118.197 219.147 118.374C219.343 118.551 219.441 118.775 219.441 119.046C219.441 119.317 219.343 119.536 219.147 119.704C218.96 119.872 218.713 119.956 218.405 119.956C218.097 119.956 217.849 119.872 217.663 119.704C217.476 119.536 217.383 119.317 217.383 119.046ZM219.203 121.286V129H217.607V121.286H219.203ZM224.228 121.188C224.928 121.188 225.525 121.361 226.02 121.706C226.515 122.051 226.86 122.509 227.056 123.078V118.64H228.666V129H227.056V127.208C226.86 127.777 226.515 128.235 226.02 128.58C225.525 128.925 224.928 129.098 224.228 129.098C223.556 129.098 222.954 128.939 222.422 128.622C221.899 128.305 221.489 127.847 221.19 127.25C220.891 126.653 220.742 125.948 220.742 125.136C220.742 124.333 220.891 123.633 221.19 123.036C221.489 122.439 221.899 121.981 222.422 121.664C222.954 121.347 223.556 121.188 224.228 121.188ZM224.718 122.588C224.009 122.588 223.439 122.817 223.01 123.274C222.59 123.722 222.38 124.343 222.38 125.136C222.38 125.929 222.59 126.555 223.01 127.012C223.439 127.46 224.009 127.684 224.718 127.684C225.166 127.684 225.567 127.581 225.922 127.376C226.277 127.161 226.557 126.863 226.762 126.48C226.967 126.097 227.07 125.649 227.07 125.136C227.07 124.632 226.967 124.189 226.762 123.806C226.557 123.414 226.277 123.115 225.922 122.91C225.567 122.695 225.166 122.588 224.718 122.588ZM233.115 121.188C234.021 121.188 234.744 121.421 235.285 121.888C235.836 122.345 236.172 122.961 236.293 123.736H234.781C234.716 123.316 234.534 122.98 234.235 122.728C233.946 122.467 233.559 122.336 233.073 122.336C232.672 122.336 232.359 122.434 232.135 122.63C231.921 122.817 231.813 123.073 231.813 123.4C231.813 123.643 231.893 123.839 232.051 123.988C232.21 124.137 232.406 124.254 232.639 124.338C232.882 124.422 233.223 124.515 233.661 124.618C234.24 124.749 234.707 124.884 235.061 125.024C235.425 125.164 235.733 125.388 235.985 125.696C236.247 125.995 236.377 126.405 236.377 126.928C236.377 127.572 236.13 128.095 235.635 128.496C235.15 128.897 234.492 129.098 233.661 129.098C232.7 129.098 231.921 128.874 231.323 128.426C230.735 127.978 230.381 127.353 230.259 126.55H231.813C231.86 126.97 232.047 127.311 232.373 127.572C232.7 127.833 233.129 127.964 233.661 127.964C234.044 127.964 234.343 127.866 234.557 127.67C234.781 127.465 234.893 127.208 234.893 126.9C234.893 126.629 234.809 126.415 234.641 126.256C234.473 126.097 234.263 125.976 234.011 125.892C233.759 125.799 233.414 125.705 232.975 125.612C232.415 125.481 231.958 125.351 231.603 125.22C231.258 125.089 230.959 124.879 230.707 124.59C230.465 124.291 230.343 123.89 230.343 123.386C230.343 122.733 230.586 122.205 231.071 121.804C231.566 121.393 232.247 121.188 233.115 121.188ZM242.855 125.164V129H241.259V119.116H244.619C245.758 119.116 246.612 119.387 247.181 119.928C247.76 120.469 248.049 121.211 248.049 122.154C248.049 123.087 247.755 123.825 247.167 124.366C246.579 124.898 245.73 125.164 244.619 125.164H242.855ZM244.451 123.862C245.767 123.862 246.425 123.293 246.425 122.154C246.425 121.594 246.266 121.169 245.949 120.88C245.641 120.581 245.142 120.432 244.451 120.432H242.855V123.862H244.451ZM251.044 118.64V129H249.448V118.64H251.044ZM256.07 121.188C256.77 121.188 257.367 121.361 257.862 121.706C258.356 122.051 258.706 122.509 258.912 123.078V121.286H260.508V129H258.912V127.208C258.706 127.777 258.356 128.235 257.862 128.58C257.367 128.925 256.77 129.098 256.07 129.098C255.398 129.098 254.796 128.939 254.264 128.622C253.741 128.305 253.33 127.847 253.032 127.25C252.733 126.653 252.584 125.948 252.584 125.136C252.584 124.333 252.733 123.633 253.032 123.036C253.33 122.439 253.741 121.981 254.264 121.664C254.796 121.347 255.398 121.188 256.07 121.188ZM256.56 122.588C255.85 122.588 255.281 122.817 254.852 123.274C254.432 123.722 254.222 124.343 254.222 125.136C254.222 125.929 254.432 126.555 254.852 127.012C255.281 127.46 255.85 127.684 256.56 127.684C257.008 127.684 257.409 127.581 257.764 127.376C258.118 127.161 258.398 126.863 258.604 126.48C258.809 126.097 258.912 125.649 258.912 125.136C258.912 124.632 258.809 124.189 258.604 123.806C258.398 123.414 258.118 123.115 257.764 122.91C257.409 122.695 257.008 122.588 256.56 122.588ZM263.333 121.286L265.643 126.956L267.785 121.286H269.563L264.901 132.668H263.123L264.789 128.818L261.541 121.286H263.333ZM279.788 126.858H275.616L274.86 129H273.152L276.792 119.27H278.626L282.252 129H280.544L279.788 126.858ZM279.34 125.626L277.702 121.006L276.064 125.626H279.34ZM285.033 122.798C285.294 122.294 285.667 121.897 286.153 121.608C286.638 121.309 287.198 121.16 287.833 121.16V122.896H287.357C286.657 122.896 286.092 123.069 285.663 123.414C285.243 123.75 285.033 124.31 285.033 125.094V129H283.437V121.286H285.033V122.798ZM296.197 124.772C296.197 125.033 296.178 125.262 296.141 125.458H290.205C290.233 126.251 290.452 126.839 290.863 127.222C291.273 127.605 291.782 127.796 292.389 127.796C292.921 127.796 293.369 127.661 293.733 127.39C294.106 127.119 294.335 126.76 294.419 126.312H296.127C296.024 126.853 295.809 127.334 295.483 127.754C295.156 128.174 294.731 128.505 294.209 128.748C293.686 128.981 293.103 129.098 292.459 129.098C291.712 129.098 291.049 128.939 290.471 128.622C289.901 128.305 289.453 127.847 289.127 127.25C288.8 126.653 288.637 125.948 288.637 125.136C288.637 124.333 288.8 123.633 289.127 123.036C289.453 122.439 289.901 121.981 290.471 121.664C291.049 121.347 291.712 121.188 292.459 121.188C293.215 121.188 293.873 121.347 294.433 121.664C295.002 121.972 295.436 122.401 295.735 122.952C296.043 123.493 296.197 124.1 296.197 124.772ZM294.587 124.73C294.605 124.226 294.517 123.806 294.321 123.47C294.134 123.125 293.873 122.873 293.537 122.714C293.21 122.546 292.851 122.462 292.459 122.462C291.833 122.462 291.311 122.653 290.891 123.036C290.471 123.419 290.242 123.983 290.205 124.73H294.587ZM300.831 121.188C301.531 121.188 302.129 121.361 302.623 121.706C303.118 122.051 303.468 122.509 303.673 123.078V121.286H305.269V129H303.673V127.208C303.468 127.777 303.118 128.235 302.623 128.58C302.129 128.925 301.531 129.098 300.831 129.098C300.159 129.098 299.557 128.939 299.025 128.622C298.503 128.305 298.092 127.847 297.793 127.25C297.495 126.653 297.345 125.948 297.345 125.136C297.345 124.333 297.495 123.633 297.793 123.036C298.092 122.439 298.503 121.981 299.025 121.664C299.557 121.347 300.159 121.188 300.831 121.188ZM301.321 122.588C300.612 122.588 300.043 122.817 299.613 123.274C299.193 123.722 298.983 124.343 298.983 125.136C298.983 125.929 299.193 126.555 299.613 127.012C300.043 127.46 300.612 127.684 301.321 127.684C301.769 127.684 302.171 127.581 302.525 127.376C302.88 127.161 303.16 126.863 303.365 126.48C303.571 126.097 303.673 125.649 303.673 125.136C303.673 124.632 303.571 124.189 303.365 123.806C303.16 123.414 302.88 123.115 302.525 122.91C302.171 122.695 301.769 122.588 301.321 122.588ZM309.719 121.188C310.624 121.188 311.347 121.421 311.889 121.888C312.439 122.345 312.775 122.961 312.897 123.736H311.385C311.319 123.316 311.137 122.98 310.839 122.728C310.549 122.467 310.162 122.336 309.677 122.336C309.275 122.336 308.963 122.434 308.739 122.63C308.524 122.817 308.417 123.073 308.417 123.4C308.417 123.643 308.496 123.839 308.655 123.988C308.813 124.137 309.009 124.254 309.243 124.338C309.485 124.422 309.826 124.515 310.265 124.618C310.843 124.749 311.31 124.884 311.665 125.024C312.029 125.164 312.337 125.388 312.589 125.696C312.85 125.995 312.981 126.405 312.981 126.928C312.981 127.572 312.733 128.095 312.239 128.496C311.753 128.897 311.095 129.098 310.265 129.098C309.303 129.098 308.524 128.874 307.927 128.426C307.339 127.978 306.984 127.353 306.863 126.55H308.417C308.463 126.97 308.65 127.311 308.977 127.572C309.303 127.833 309.733 127.964 310.265 127.964C310.647 127.964 310.946 127.866 311.161 127.67C311.385 127.465 311.497 127.208 311.497 126.9C311.497 126.629 311.413 126.415 311.245 126.256C311.077 126.097 310.867 125.976 310.615 125.892C310.363 125.799 310.017 125.705 309.579 125.612C309.019 125.481 308.561 125.351 308.207 125.22C307.861 125.089 307.563 124.879 307.311 124.59C307.068 124.291 306.947 123.89 306.947 123.386C306.947 122.733 307.189 122.205 307.675 121.804C308.169 121.393 308.851 121.188 309.719 121.188Z" fill="white"/>
<path d="M379.146 119.116V126.284C379.146 127.171 378.899 127.861 378.404 128.356C377.909 128.851 377.223 129.098 376.346 129.098C375.394 129.098 374.647 128.823 374.106 128.272C373.565 127.721 373.294 126.942 373.294 125.934H374.876C374.876 126.475 374.988 126.895 375.212 127.194C375.445 127.493 375.8 127.642 376.276 127.642C376.715 127.642 377.037 127.516 377.242 127.264C377.447 127.012 377.55 126.685 377.55 126.284V119.116H379.146ZM384.535 121.188C385.282 121.188 385.954 121.347 386.551 121.664C387.148 121.981 387.615 122.439 387.951 123.036C388.287 123.633 388.455 124.333 388.455 125.136C388.455 125.948 388.287 126.653 387.951 127.25C387.615 127.847 387.148 128.305 386.551 128.622C385.954 128.939 385.282 129.098 384.535 129.098C383.788 129.098 383.116 128.939 382.519 128.622C381.931 128.305 381.464 127.847 381.119 127.25C380.783 126.643 380.615 125.939 380.615 125.136C380.615 124.333 380.783 123.633 381.119 123.036C381.464 122.439 381.931 121.981 382.519 121.664C383.116 121.347 383.788 121.188 384.535 121.188ZM384.535 122.574C384.124 122.574 383.746 122.667 383.401 122.854C383.056 123.041 382.776 123.33 382.561 123.722C382.356 124.105 382.253 124.576 382.253 125.136C382.253 125.705 382.356 126.181 382.561 126.564C382.776 126.947 383.056 127.231 383.401 127.418C383.746 127.605 384.124 127.698 384.535 127.698C384.946 127.698 385.324 127.605 385.669 127.418C386.014 127.231 386.29 126.947 386.495 126.564C386.71 126.181 386.817 125.705 386.817 125.136C386.817 124.576 386.71 124.105 386.495 123.722C386.29 123.33 386.014 123.041 385.669 122.854C385.324 122.667 384.946 122.574 384.535 122.574ZM393.083 121.188C393.783 121.188 394.381 121.361 394.875 121.706C395.37 122.051 395.72 122.509 395.925 123.078V121.286H397.521V129.084C397.521 129.803 397.372 130.437 397.073 130.988C396.784 131.548 396.364 131.987 395.813 132.304C395.263 132.621 394.609 132.78 393.853 132.78C392.771 132.78 391.893 132.523 391.221 132.01C390.559 131.497 390.143 130.801 389.975 129.924H391.557C391.688 130.381 391.94 130.736 392.313 130.988C392.687 131.249 393.163 131.38 393.741 131.38C394.376 131.38 394.899 131.184 395.309 130.792C395.72 130.4 395.925 129.831 395.925 129.084V127.208C395.72 127.777 395.37 128.235 394.875 128.58C394.381 128.925 393.783 129.098 393.083 129.098C392.411 129.098 391.809 128.939 391.277 128.622C390.755 128.305 390.344 127.847 390.045 127.25C389.747 126.653 389.597 125.948 389.597 125.136C389.597 124.333 389.747 123.633 390.045 123.036C390.344 122.439 390.755 121.981 391.277 121.664C391.809 121.347 392.411 121.188 393.083 121.188ZM393.573 122.588C392.864 122.588 392.295 122.817 391.865 123.274C391.445 123.722 391.235 124.343 391.235 125.136C391.235 125.929 391.445 126.555 391.865 127.012C392.295 127.46 392.864 127.684 393.573 127.684C394.021 127.684 394.423 127.581 394.777 127.376C395.132 127.161 395.412 126.863 395.617 126.48C395.823 126.097 395.925 125.649 395.925 125.136C395.925 124.632 395.823 124.189 395.617 123.806C395.412 123.414 395.132 123.115 394.777 122.91C394.423 122.695 394.021 122.588 393.573 122.588ZM402.531 121.188C403.231 121.188 403.828 121.361 404.323 121.706C404.817 122.051 405.167 122.509 405.373 123.078V121.286H406.969V129.084C406.969 129.803 406.819 130.437 406.521 130.988C406.231 131.548 405.811 131.987 405.261 132.304C404.71 132.621 404.057 132.78 403.301 132.78C402.218 132.78 401.341 132.523 400.669 132.01C400.006 131.497 399.591 130.801 399.423 129.924H401.005C401.135 130.381 401.387 130.736 401.761 130.988C402.134 131.249 402.61 131.38 403.189 131.38C403.823 131.38 404.346 131.184 404.757 130.792C405.167 130.4 405.373 129.831 405.373 129.084V127.208C405.167 127.777 404.817 128.235 404.323 128.58C403.828 128.925 403.231 129.098 402.531 129.098C401.859 129.098 401.257 128.939 400.725 128.622C400.202 128.305 399.791 127.847 399.493 127.25C399.194 126.653 399.045 125.948 399.045 125.136C399.045 124.333 399.194 123.633 399.493 123.036C399.791 122.439 400.202 121.981 400.725 121.664C401.257 121.347 401.859 121.188 402.531 121.188ZM403.021 122.588C402.311 122.588 401.742 122.817 401.313 123.274C400.893 123.722 400.683 124.343 400.683 125.136C400.683 125.929 400.893 126.555 401.313 127.012C401.742 127.46 402.311 127.684 403.021 127.684C403.469 127.684 403.87 127.581 404.225 127.376C404.579 127.161 404.859 126.863 405.065 126.48C405.27 126.097 405.373 125.649 405.373 125.136C405.373 124.632 405.27 124.189 405.065 123.806C404.859 123.414 404.579 123.115 404.225 122.91C403.87 122.695 403.469 122.588 403.021 122.588ZM408.66 119.046C408.66 118.775 408.753 118.551 408.94 118.374C409.127 118.197 409.374 118.108 409.682 118.108C409.99 118.108 410.237 118.197 410.424 118.374C410.62 118.551 410.718 118.775 410.718 119.046C410.718 119.317 410.62 119.536 410.424 119.704C410.237 119.872 409.99 119.956 409.682 119.956C409.374 119.956 409.127 119.872 408.94 119.704C408.753 119.536 408.66 119.317 408.66 119.046ZM410.48 121.286V129H408.884V121.286H410.48ZM416.723 121.16C417.619 121.16 418.338 121.449 418.879 122.028C419.421 122.607 419.691 123.433 419.691 124.506V129H418.095V124.674C418.095 123.983 417.918 123.451 417.563 123.078C417.209 122.695 416.723 122.504 416.107 122.504C415.473 122.504 414.964 122.709 414.581 123.12C414.199 123.521 414.007 124.114 414.007 124.898V129H412.411V121.286H414.007V122.98C414.213 122.401 414.558 121.953 415.043 121.636C415.529 121.319 416.089 121.16 416.723 121.16ZM424.652 121.188C425.352 121.188 425.949 121.361 426.444 121.706C426.938 122.051 427.288 122.509 427.494 123.078V121.286H429.09V129.084C429.09 129.803 428.94 130.437 428.642 130.988C428.352 131.548 427.932 131.987 427.382 132.304C426.831 132.621 426.178 132.78 425.422 132.78C424.339 132.78 423.462 132.523 422.79 132.01C422.127 131.497 421.712 130.801 421.544 129.924H423.126C423.256 130.381 423.508 130.736 423.882 130.988C424.255 131.249 424.731 131.38 425.31 131.38C425.944 131.38 426.467 131.184 426.878 130.792C427.288 130.4 427.494 129.831 427.494 129.084V127.208C427.288 127.777 426.938 128.235 426.444 128.58C425.949 128.925 425.352 129.098 424.652 129.098C423.98 129.098 423.378 128.939 422.846 128.622C422.323 128.305 421.912 127.847 421.614 127.25C421.315 126.653 421.166 125.948 421.166 125.136C421.166 124.333 421.315 123.633 421.614 123.036C421.912 122.439 422.323 121.981 422.846 121.664C423.378 121.347 423.98 121.188 424.652 121.188ZM425.142 122.588C424.432 122.588 423.863 122.817 423.434 123.274C423.014 123.722 422.804 124.343 422.804 125.136C422.804 125.929 423.014 126.555 423.434 127.012C423.863 127.46 424.432 127.684 425.142 127.684C425.59 127.684 425.991 127.581 426.346 127.376C426.7 127.161 426.98 126.863 427.186 126.48C427.391 126.097 427.494 125.649 427.494 125.136C427.494 124.632 427.391 124.189 427.186 123.806C426.98 123.414 426.7 123.115 426.346 122.91C425.991 122.695 425.59 122.588 425.142 122.588ZM438.668 115.784L434.86 131.464H433.306L437.114 115.784H438.668ZM447.269 119.018C448.482 119.018 449.49 119.326 450.293 119.942C451.095 120.558 451.637 121.393 451.917 122.448H450.223C449.989 121.851 449.616 121.379 449.103 121.034C448.599 120.679 447.978 120.502 447.241 120.502C446.653 120.502 446.125 120.647 445.659 120.936C445.201 121.225 444.837 121.641 444.567 122.182C444.305 122.714 444.175 123.339 444.175 124.058C444.175 124.767 444.305 125.393 444.567 125.934C444.837 126.466 445.201 126.877 445.659 127.166C446.125 127.455 446.653 127.6 447.241 127.6C447.978 127.6 448.599 127.427 449.103 127.082C449.616 126.727 449.989 126.256 450.223 125.668H451.917C451.637 126.723 451.095 127.558 450.293 128.174C449.49 128.781 448.482 129.084 447.269 129.084C446.335 129.084 445.509 128.874 444.791 128.454C444.072 128.025 443.517 127.432 443.125 126.676C442.733 125.911 442.537 125.038 442.537 124.058C442.537 123.078 442.733 122.21 443.125 121.454C443.517 120.689 444.072 120.091 444.791 119.662C445.509 119.233 446.335 119.018 447.269 119.018ZM454.419 121.286L456.729 126.956L458.871 121.286H460.649L455.987 132.668H454.209L455.875 128.818L452.627 121.286H454.419ZM465.128 121.188C466.127 121.188 466.953 121.454 467.606 121.986C468.26 122.509 468.666 123.223 468.824 124.128H467.13C467.037 123.643 466.808 123.265 466.444 122.994C466.09 122.714 465.642 122.574 465.1 122.574C464.484 122.574 463.971 122.793 463.56 123.232C463.15 123.661 462.944 124.296 462.944 125.136C462.944 125.976 463.15 126.615 463.56 127.054C463.971 127.493 464.484 127.712 465.1 127.712C465.642 127.712 466.09 127.572 466.444 127.292C466.808 127.012 467.037 126.629 467.13 126.144H468.824C468.666 127.049 468.26 127.768 467.606 128.3C466.953 128.832 466.127 129.098 465.128 129.098C464.382 129.098 463.719 128.939 463.14 128.622C462.571 128.305 462.123 127.847 461.796 127.25C461.47 126.653 461.306 125.948 461.306 125.136C461.306 124.333 461.47 123.633 461.796 123.036C462.123 122.439 462.571 121.981 463.14 121.664C463.719 121.347 464.382 121.188 465.128 121.188ZM471.962 118.64V129H470.366V118.64H471.962ZM481.062 124.772C481.062 125.033 481.043 125.262 481.006 125.458H475.07C475.098 126.251 475.317 126.839 475.728 127.222C476.138 127.605 476.647 127.796 477.254 127.796C477.786 127.796 478.234 127.661 478.598 127.39C478.971 127.119 479.2 126.76 479.284 126.312H480.992C480.889 126.853 480.674 127.334 480.348 127.754C480.021 128.174 479.596 128.505 479.074 128.748C478.551 128.981 477.968 129.098 477.324 129.098C476.577 129.098 475.914 128.939 475.336 128.622C474.766 128.305 474.318 127.847 473.992 127.25C473.665 126.653 473.502 125.948 473.502 125.136C473.502 124.333 473.665 123.633 473.992 123.036C474.318 122.439 474.766 121.981 475.336 121.664C475.914 121.347 476.577 121.188 477.324 121.188C478.08 121.188 478.738 121.347 479.298 121.664C479.867 121.972 480.301 122.401 480.6 122.952C480.908 123.493 481.062 124.1 481.062 124.772ZM479.452 124.73C479.47 124.226 479.382 123.806 479.186 123.47C478.999 123.125 478.738 122.873 478.402 122.714C478.075 122.546 477.716 122.462 477.324 122.462C476.698 122.462 476.176 122.653 475.756 123.036C475.336 123.419 475.107 123.983 475.07 124.73H479.452ZM492.24 119.116V120.404H489.482V129H487.872V120.404H485.128V119.116H492.24ZM495.027 122.798C495.288 122.294 495.662 121.897 496.147 121.608C496.632 121.309 497.192 121.16 497.827 121.16V122.896H497.351C496.651 122.896 496.086 123.069 495.657 123.414C495.237 123.75 495.027 124.31 495.027 125.094V129H493.431V121.286H495.027V122.798ZM502.117 121.188C502.817 121.188 503.414 121.361 503.909 121.706C504.403 122.051 504.753 122.509 504.959 123.078V121.286H506.555V129H504.959V127.208C504.753 127.777 504.403 128.235 503.909 128.58C503.414 128.925 502.817 129.098 502.117 129.098C501.445 129.098 500.843 128.939 500.311 128.622C499.788 128.305 499.377 127.847 499.079 127.25C498.78 126.653 498.631 125.948 498.631 125.136C498.631 124.333 498.78 123.633 499.079 123.036C499.377 122.439 499.788 121.981 500.311 121.664C500.843 121.347 501.445 121.188 502.117 121.188ZM502.607 122.588C501.897 122.588 501.328 122.817 500.899 123.274C500.479 123.722 500.269 124.343 500.269 125.136C500.269 125.929 500.479 126.555 500.899 127.012C501.328 127.46 501.897 127.684 502.607 127.684C503.055 127.684 503.456 127.581 503.811 127.376C504.165 127.161 504.445 126.863 504.651 126.48C504.856 126.097 504.959 125.649 504.959 125.136C504.959 124.632 504.856 124.189 504.651 123.806C504.445 123.414 504.165 123.115 503.811 122.91C503.456 122.695 503.055 122.588 502.607 122.588ZM511.9 121.188C512.899 121.188 513.725 121.454 514.378 121.986C515.031 122.509 515.437 123.223 515.596 124.128H513.902C513.809 123.643 513.58 123.265 513.216 122.994C512.861 122.714 512.413 122.574 511.872 122.574C511.256 122.574 510.743 122.793 510.332 123.232C509.921 123.661 509.716 124.296 509.716 125.136C509.716 125.976 509.921 126.615 510.332 127.054C510.743 127.493 511.256 127.712 511.872 127.712C512.413 127.712 512.861 127.572 513.216 127.292C513.58 127.012 513.809 126.629 513.902 126.144H515.596C515.437 127.049 515.031 127.768 514.378 128.3C513.725 128.832 512.899 129.098 511.9 129.098C511.153 129.098 510.491 128.939 509.912 128.622C509.343 128.305 508.895 127.847 508.568 127.25C508.241 126.653 508.078 125.948 508.078 125.136C508.078 124.333 508.241 123.633 508.568 123.036C508.895 122.439 509.343 121.981 509.912 121.664C510.491 121.347 511.153 121.188 511.9 121.188ZM521.506 129L518.734 125.57V129H517.138V118.64H518.734V124.576L521.478 121.286H523.396L520.036 125.122L523.48 129H521.506Z" fill="white"/>
<g clip-path="url(#clip0_16_247)">
<path d="M97.7128 84.6934C94.3521 85.9031 90.7265 86.1351 87.2664 85.3894C82.5151 84.3786 77.5485 85.5717 74.1216 89.0185L67.4829 95.6635L62.3342 90.5099L68.6583 84.1797C72.1018 80.7495 73.7739 75.7782 72.6647 71.0389C71.1251 64.3442 73.211 56.9866 78.9391 52.1147C86.1903 45.9503 97.2327 46.2154 104.219 52.6781C112.199 60.0854 112.381 72.58 104.749 80.2193C104.55 80.4181 104.335 80.6335 104.12 80.8158" stroke="#ECB43A" stroke-width="2" stroke-miterlimit="10"/>
<path d="M72.6316 69.9286L88.0445 85.3729" stroke="#ECB43A" stroke-width="2" stroke-miterlimit="10"/>
<path d="M103.722 94.0561C107.38 94.0561 110.345 91.0884 110.345 87.4277C110.345 83.7669 107.38 80.7992 103.722 80.7992C100.065 80.7992 97.1003 83.7669 97.1003 87.4277C97.1003 91.0884 100.065 94.0561 103.722 94.0561Z" stroke="#ECB43A" stroke-width="2" stroke-miterlimit="10"/>
</g>
<g clip-path="url(#clip1_16_247)">
<path d="M445.152 103.035C448.082 103.035 450.458 100.682 450.458 97.7786C450.458 94.8754 448.082 92.522 445.152 92.522C442.222 92.522 439.847 94.8754 439.847 97.7786C439.847 100.682 442.222 103.035 445.152 103.035Z" stroke="#ECB43A" stroke-width="2" stroke-miterlimit="10"/>
<path d="M428.347 102.948C431.18 102.204 432.867 99.3267 432.117 96.5204C431.366 93.7141 428.462 92.0419 425.63 92.7854C422.797 93.529 421.11 96.4067 421.86 99.2131C422.611 102.019 425.515 103.692 428.347 102.948Z" stroke="#ECB43A" stroke-width="2" stroke-miterlimit="10"/>
<path d="M427.797 97.8676C427.797 98.3102 427.434 98.6695 426.987 98.6695C426.541 98.6695 426.178 98.3102 426.178 97.8676C426.178 97.4249 426.541 97.0656 426.987 97.0656C427.434 97.0656 427.797 97.4249 427.797 97.8676Z" fill="#ECB43A"/>
<path d="M427.257 97.9565L432.274 98.2956L433.806 98.3992" stroke="#ECB43A" stroke-width="2" stroke-miterlimit="10"/>
<path d="M427.078 97.6017L430.082 93.5987L432.2 90.784" stroke="#ECB43A" stroke-width="2" stroke-miterlimit="10"/>
<path d="M440.931 88.4987L435.454 89.7613" stroke="#ECB43A" stroke-width="2" stroke-miterlimit="10"/>
<path d="M436.609 96.5317L442.033 90.5734" stroke="#ECB43A" stroke-width="2" stroke-miterlimit="10"/>
<path d="M436.876 80.9363C437.719 80.1014 437.719 78.7478 436.876 77.913C436.034 77.0781 434.668 77.0781 433.825 77.913C432.982 78.7478 432.982 80.1014 433.825 80.9363C434.668 81.7711 436.034 81.7711 436.876 80.9363Z" stroke="#ECB43A" stroke-width="2" stroke-miterlimit="10"/>
<path d="M445.062 97.7786L440.296 87.0727L441.645 86.7303" stroke="#ECB43A" stroke-width="2" stroke-miterlimit="10" stroke-linecap="round"/>
<path d="M440.206 87.0874C440.802 87.0874 441.285 86.4307 441.285 85.8405C441.285 85.0532 440.64 84.4146 439.846 84.4146H438.407L435.349 81.9197C434.27 81.0288 432.651 81.3847 431.931 82.9886L430.388 86.8294C429.917 87.8274 430.167 89.0123 431.001 89.7399L434.09 92.433L433.799 98.4927C433.762 99.2687 434.387 99.9175 435.17 99.9175C435.882 99.9175 436.476 99.378 436.538 98.6752L437.148 91.72L433.91 87.9783L435.169 85.1275L437.147 86.9094L440.564 87.0874" stroke="#ECB43A" stroke-width="2" stroke-miterlimit="10"/>
<path d="M433.912 99.9164H436.609" stroke="#ECB43A" stroke-width="2" stroke-miterlimit="10" stroke-linecap="round"/>
<path d="M451.716 92.0996C451.716 92.0996 454.498 90.0327 454.498 86.5873C454.498 86.2696 455.089 80.6819 443.195 76.8422C441.527 76.3038 439.811 75.931 438.075 75.6775C433.488 75.0051 421.813 72.6973 421.813 66.606C421.813 66.606 421.117 58.6822 435.026 58.6822H455.54" stroke="#ECB43A" stroke-width="2" stroke-linecap="round" stroke-linejoin="round"/>
<path d="M457.975 103.124C457.975 103.124 474.318 102.09 474.318 88.6552C474.318 86.1863 474.596 76.5291 451.657 71.0765C447.983 70.2035 444.255 69.5818 440.498 69.1774C436.778 68.7776 429.643 67.6062 430.158 64.5403C430.158 64.5403 430.372 59.028 439.653 58.6833" stroke="#ECB43A" stroke-width="2" stroke-linecap="round" stroke-linejoin="round"/>
<path d="M467.015 72.463V61.4384" stroke="#ECB43A" stroke-width="2" stroke-linecap="round" stroke-linejoin="round"/>
<path d="M467.015 66.9507C467.015 66.9507 477.123 66.3042 473.027 56.8789C472.761 56.2662 472.65 55.5983 472.687 54.9326C472.794 52.9503 472.432 48.6916 467.363 48.6916C467.363 48.6916 461.758 48.0743 461.746 54.4337C461.745 55.159 461.589 55.8731 461.263 56.5219C460.105 58.8309 458.144 64.7521 467.015 66.9507Z" stroke="#ECB43A" stroke-width="2" stroke-linecap="round" stroke-linejoin="round"/>
</g>
<g clip-path="url(#clip2_16_247)">
<path d="M442.578 256.481H434.235C427.098 256.481 421.293 250.694 421.293 243.579V228.396C421.293 227.765 420.78 227.254 420.146 227.254C419.513 227.254 419 227.765 419 228.396V243.579C419 251.953 425.834 258.767 434.235 258.767H442.578C443.211 258.767 443.724 258.255 443.724 257.624C443.724 256.993 443.211 256.481 442.578 256.481Z" fill="#ECB43A"/>
<path d="M438.047 219.052C442.486 219.052 446.098 215.452 446.098 211.026C446.098 206.6 442.486 203 438.047 203C433.607 203 429.995 206.601 429.995 211.026C429.995 215.452 433.607 219.053 438.047 219.053V219.052ZM438.047 205.286C441.222 205.286 443.805 207.861 443.805 211.026C443.805 214.192 441.222 216.767 438.047 216.767C434.871 216.767 432.288 214.192 432.288 211.026C432.288 207.861 434.871 205.286 438.047 205.286Z" fill="#ECB43A"/>
<path d="M446.746 236.634L458.408 237.583C459.632 237.681 460.854 237.264 461.757 236.434C462.661 235.604 463.179 234.425 463.179 233.2C463.179 230.971 461.504 229.093 459.283 228.831L448.197 227.53L440.308 223.146L440.17 223.069C437.774 221.723 436.377 221.148 435.497 221.148H434.887C432.257 221.148 429.945 222.124 428.015 224.047C426.113 225.943 424.913 228.556 424.635 231.406C424.206 235.849 423.988 238.649 423.988 239.73C423.988 240.013 423.986 240.286 423.984 240.552C423.972 242.532 423.962 244.242 424.701 246.437C426.075 250.532 430.334 253.74 434.397 253.74H446.906V266.146C446.906 267.441 447.412 268.66 448.333 269.577C449.238 270.48 450.439 270.985 451.717 271C451.735 271 451.754 271 451.772 271C453.022 271 454.213 270.503 455.132 269.598C456.093 268.651 456.645 267.344 456.645 266.013V252.597C456.645 250.131 455.683 247.818 453.938 246.084C452.193 244.344 449.873 243.386 447.405 243.386H442.296C442.019 241.319 441.778 238.245 441.616 234.751L446.435 236.564C446.535 236.601 446.64 236.625 446.746 236.634L446.746 236.634ZM440.176 244.717C440.268 245.268 440.746 245.672 441.306 245.672H447.405C449.26 245.672 451.005 246.393 452.318 247.702C453.63 249.005 454.352 250.744 454.352 252.597V266.014C454.352 266.738 454.049 267.452 453.52 267.973C453.027 268.459 452.401 268.73 451.744 268.714C451.068 268.706 450.433 268.439 449.953 267.961C449.466 267.476 449.198 266.831 449.198 266.146V252.597C449.198 251.966 448.685 251.455 448.051 251.455H434.396C431.364 251.455 427.92 248.825 426.874 245.711C426.257 243.875 426.265 242.487 426.277 240.565C426.278 240.296 426.28 240.018 426.28 239.73C426.28 239.037 426.391 237.068 426.917 231.626C427.143 229.303 428.109 227.186 429.636 225.664C431.141 224.163 432.859 223.434 434.887 223.434H435.495C435.611 223.438 436.328 223.534 439.044 225.06L447.28 229.637C447.411 229.709 447.555 229.756 447.704 229.773L459.015 231.101C460.082 231.227 460.887 232.129 460.887 233.2C460.887 233.797 460.644 234.348 460.203 234.753C459.763 235.157 459.19 235.353 458.595 235.305L447.094 234.369L438.668 231.199C438.075 230.975 437.413 231.274 437.19 231.865C436.967 232.455 437.266 233.115 437.858 233.337L439.283 233.874C439.472 238.459 439.801 242.474 440.176 244.718L440.176 244.717Z" fill="#ECB43A"/>
<path d="M463.358 239.124C460.799 239.124 458.718 241.199 458.718 243.75V245.558C458.718 246.189 459.231 246.701 459.864 246.701C460.497 246.701 461.01 246.189 461.01 245.558V243.75C461.01 242.459 462.063 241.409 463.358 241.409C464.653 241.409 465.707 242.459 465.707 243.75V269.453C465.707 270.085 466.22 270.596 466.853 270.596C467.486 270.596 467.999 270.085 467.999 269.453V243.75C467.999 241.199 465.917 239.124 463.358 239.124H463.358Z" fill="#ECB43A"/>
</g>
<g clip-path="url(#clip3_16_247)">
<path d="M276.998 61.3874L282.119 60.4314C283.894 60.129 285.128 58.535 284.989 56.723C284.857 55.0062 283.412 53.6243 281.663 53.5129L278.612 53.1756C278.161 51.4441 276.902 49.881 275.152 48.9356C273.004 47.7748 270.501 47.6919 268.104 48.699C263.581 50.6012 262.607 55.6191 263.209 59.886C262.718 59.9396 262.248 60.138 261.861 60.4672C261.352 60.8996 261.043 61.502 260.991 62.1637L260.955 62.6351C257.503 63.7838 253.779 64.5048 249.868 64.7812L249.83 64.7161C249.492 64.143 248.95 63.7366 248.303 63.5683C247.656 63.4009 246.983 63.4927 246.406 63.8285C245.72 64.2284 245.308 64.9063 245.205 65.6347C243.851 65.3315 242.235 65.4347 240.787 65.9525C239.491 66.4167 237.749 67.4165 236.803 69.5455C235.206 73.1417 234.093 75.3617 234.082 75.3828C233.989 75.569 233.975 75.7844 234.044 75.9803C234.112 76.1754 234.258 76.3363 234.447 76.4241L239.494 78.7726L236.752 87.0876C236.05 89.0808 236.955 91.2829 238.855 92.2087C239.403 92.4754 239.989 92.6022 240.572 92.6022C242.09 92.6022 243.593 91.7478 244.367 90.2838L249.896 79.4391C250.195 78.8742 250.749 78.4937 251.377 78.4214L255.843 77.9101V79.757L255.712 79.7114C254.523 79.2977 253.225 79.8431 252.699 80.986C252.416 81.6022 252.406 82.3127 252.673 82.9353C252.833 83.3093 253.094 83.6239 253.409 83.8718C253.115 84.1026 252.865 84.3961 252.699 84.7578C252.416 85.374 252.406 86.0845 252.673 86.7071C252.833 87.0811 253.094 87.3956 253.409 87.6436C253.115 87.8744 252.865 88.1679 252.699 88.5304C252.416 89.1466 252.406 89.8571 252.673 90.4797C252.94 91.1032 253.463 91.5885 254.106 91.8112L255.842 92.4144V96.1472H250.416C247.596 96.1472 245.3 98.4265 245.3 101.229C245.3 101.654 245.647 101.998 246.075 101.998H272.118C272.546 101.998 272.893 101.654 272.893 101.229C272.893 98.4273 270.598 96.1472 267.778 96.1472H262.352V94.6775L262.483 94.723C262.752 94.8165 263.025 94.8612 263.294 94.8612C264.219 94.8612 265.089 94.3336 265.496 93.4484C265.779 92.833 265.788 92.1226 265.521 91.4999C265.362 91.1276 265.104 90.8138 264.791 90.5659C265.084 90.335 265.33 90.0375 265.496 89.6758C265.779 89.0604 265.788 88.35 265.521 87.7273C265.362 87.355 265.104 87.0412 264.791 86.7933C265.084 86.5624 265.33 86.2649 265.496 85.9032C265.779 85.2878 265.788 84.5774 265.521 83.9547C265.255 83.3312 264.732 82.8459 264.089 82.6216L262.316 82.0054C262.331 81.9461 262.352 81.89 262.352 81.8266V77.515C262.352 77.3898 262.316 77.2768 262.262 77.1728L265.275 76.8281C265.284 76.8314 265.294 76.8346 265.304 76.8379C265.418 76.8753 265.534 76.9094 265.649 76.9395L274.505 86.6275C275.974 88.2004 278.418 88.3492 280.068 86.9689C281.635 85.6593 281.941 83.3117 280.792 81.5274L275.443 72.619C274.573 71.2664 274.356 69.6138 274.846 68.0847L276.998 61.3833V61.3874ZM268.709 50.1175C270.663 49.2957 272.687 49.3558 274.411 50.2882C275.585 50.9223 276.473 51.8961 276.922 52.9886L273.278 52.5854C271.837 52.5001 270.479 53.204 269.728 54.4323L269.227 55.2533L265.855 61.5605C265.671 61.0224 265.3 60.5712 264.82 60.268C264.818 60.2404 264.827 60.2144 264.823 60.1867C264.591 58.8756 263.691 52.2286 268.709 50.1183V50.1175ZM260.825 64.2983L260.625 66.867C260.511 68.3229 259.472 69.5211 258.04 69.8487L255.87 70.3446C254.435 70.6697 252.975 70.0446 252.232 68.7846L250.741 66.2566C254.272 65.9542 257.654 65.2973 260.826 64.2967L260.825 64.2983ZM247.19 65.1559C247.338 65.0706 247.502 65.0267 247.669 65.0267C247.75 65.0267 247.831 65.0372 247.912 65.0575C248.158 65.1218 248.365 65.2762 248.492 65.4933L250.894 69.5634C251.98 71.4078 254.123 72.3256 256.217 71.8451L258.387 71.3485C260.483 70.8697 262.004 69.1163 262.17 66.9857L262.461 63.2562V63.2546L262.537 62.2815C262.557 62.0312 262.674 61.8019 262.869 61.6377C263.063 61.4727 263.312 61.3955 263.56 61.4134C264.083 61.454 264.476 61.9092 264.435 62.4295L264.069 67.1328C263.836 70.0909 261.726 72.5255 258.815 73.1913L256.646 73.6871C256.415 73.74 256.183 73.7806 255.952 73.8091C253.258 74.1464 250.629 72.8531 249.253 70.5193L246.852 66.45C246.587 66.0005 246.739 65.4201 247.192 65.1559H247.19ZM235.817 75.3617C236.271 74.4261 237.136 72.6093 238.222 70.1665C238.946 68.5359 240.303 67.762 241.314 67.4003C242.989 66.8004 244.64 66.954 245.602 67.3775L246.013 68.0725L245.872 68.0994C244.064 68.3473 242.564 69.5756 241.954 71.3168L239.981 77.298L235.819 75.3609L235.817 75.3617ZM267.779 97.6884C269.479 97.6884 270.904 98.876 271.26 100.46H246.936C247.291 98.876 248.717 97.6884 250.416 97.6884H267.779ZM257.392 96.1488V92.955L260.802 94.1402V96.1488H257.392ZM264.086 92.8103C263.895 93.2232 263.425 93.4224 262.996 93.272L254.618 90.3602C254.382 90.2781 254.198 90.1074 254.099 89.8782C254.001 89.6498 254.004 89.3994 254.108 89.1726C254.256 88.8523 254.571 88.6613 254.906 88.6613C255.003 88.6613 255.102 88.6776 255.199 88.7109L263.577 91.6227C263.813 91.7056 263.998 91.8763 264.096 92.1055C264.194 92.3339 264.19 92.5843 264.087 92.8103H264.086ZM264.086 89.0385C263.895 89.4514 263.425 89.6498 262.996 89.5002L254.618 86.5885C254.382 86.5063 254.198 86.3356 254.099 86.1064C254.001 85.878 254.004 85.6268 254.108 85.4008C254.256 85.0805 254.571 84.8895 254.906 84.8895C255.003 84.8895 255.102 84.9058 255.199 84.9391L263.577 87.8509C263.813 87.933 263.998 88.1045 264.096 88.3337C264.194 88.5621 264.19 88.8125 264.087 89.0385H264.086ZM263.576 84.0783C263.813 84.1604 263.997 84.3319 264.095 84.5611C264.193 84.7895 264.189 85.0399 264.086 85.2659C263.895 85.6788 263.425 85.8764 262.996 85.7276L254.618 82.815C254.382 82.7329 254.198 82.5622 254.099 82.333C254.001 82.1046 254.004 81.8534 254.108 81.6274C254.256 81.3071 254.571 81.1161 254.906 81.1161C255.003 81.1161 255.102 81.1324 255.199 81.1657L263.577 84.0774L263.576 84.0783ZM257.376 80.2918C257.379 80.2642 257.391 80.2414 257.391 80.213V77.7337L260.838 77.3394C260.824 77.3988 260.802 77.4549 260.802 77.5191V81.4827L257.376 80.2918H257.376ZM274.124 73.4319L279.473 82.3403C280.203 83.4767 280.027 84.9944 279.069 85.7951C278.049 86.647 276.544 86.5535 275.646 85.591L266.638 75.7356C266.531 75.6186 266.391 75.5373 266.236 75.5023C266.087 75.469 265.939 75.4292 265.739 75.3601L265.645 75.3235C265.53 75.282 265.407 75.2682 265.288 75.2812L251.198 76.8932C250.06 77.024 249.059 77.7093 248.517 78.7352L242.987 89.5799C242.308 90.865 240.759 91.4219 239.537 90.8277C238.34 90.2448 237.771 88.8548 238.218 87.5818L243.42 71.8102C243.834 70.6315 244.854 69.7934 246.122 69.6186L246.842 69.4821L247.914 71.2981C249.425 73.8627 252.17 75.4023 255.103 75.4023C255.448 75.4023 255.795 75.3804 256.143 75.3373C256.425 75.3023 256.71 75.2528 256.991 75.1885L259.161 74.6919C262.736 73.8749 265.329 70.8859 265.613 67.2523L265.801 64.8519C265.854 64.799 265.908 64.747 265.945 64.6779L270.574 56.0142L271.052 55.2322C271.503 54.4949 272.322 54.0755 273.143 54.1202L281.528 55.0469C282.547 55.1127 283.371 55.8833 283.444 56.8401C283.521 57.8554 282.84 58.7471 281.844 58.9162L276.257 59.9599C275.977 60.012 275.749 60.2127 275.663 60.4826L273.37 67.6222C272.738 69.5886 273.018 71.7143 274.125 73.4327L274.124 73.4319Z" fill="#ECB43A"/>
</g>
<defs>
<clipPath id="clip0_16_247">
<rect width="52" height="52" fill="white" transform="translate(60 46)"/>
</clipPath>
<clipPath id="clip1_16_247">
<rect width="54" height="55.8" fill="white" transform="translate(421 48)"/>
</clipPath>
<clipPath id="clip2_16_247">
<rect width="49" height="68" fill="white" transform="translate(419 203)"/>
</clipPath>
<clipPath id="clip3_16_247">
<rect width="51" height="54" fill="white" transform="translate(234 48)"/>
</clipPath>
</defs>
</svg>
