<svg width="52" height="52" viewBox="0 0 52 52" fill="none" xmlns="http://www.w3.org/2000/svg">
<g clip-path="url(#clip0_4_72)">
<path d="M37.7128 38.6934C34.3521 39.9031 30.7265 40.1351 27.2665 39.3894C22.5151 38.3786 17.5486 39.5717 14.1216 43.0185L7.48297 49.6635L2.33429 44.5099L8.65839 38.1797C12.1019 34.7495 13.774 29.7782 12.6648 25.0389C11.1251 18.3442 13.2111 10.9866 18.9392 6.11473C26.1904 -0.0497083 37.2327 0.215429 44.219 6.67814C52.1987 14.0854 52.3808 26.58 44.7488 34.2193C44.5501 34.4181 44.3349 34.6335 44.1197 34.8158" stroke="#ECB43A" stroke-width="2" stroke-miterlimit="10"/>
<path d="M12.6317 23.9286L28.0446 39.3729" stroke="#ECB43A" stroke-width="2" stroke-miterlimit="10"/>
<path d="M43.7224 48.0561C47.3797 48.0561 50.3445 45.0884 50.3445 41.4277C50.3445 37.7669 47.3797 34.7992 43.7224 34.7992C40.0651 34.7992 37.1003 37.7669 37.1003 41.4277C37.1003 45.0884 40.0651 48.0561 43.7224 48.0561Z" stroke="#ECB43A" stroke-width="2" stroke-miterlimit="10"/>
</g>
<defs>
<clipPath id="clip0_4_72">
<rect width="52" height="52" fill="white"/>
</clipPath>
</defs>
</svg>
