<svg width="54" height="56" viewBox="0 0 54 56" fill="none" xmlns="http://www.w3.org/2000/svg">
<g clip-path="url(#clip0_4_93)">
<path d="M24.1523 55.0352C27.0824 55.0352 29.4577 52.6817 29.4577 49.7786C29.4577 46.8754 27.0824 44.522 24.1523 44.522C21.2222 44.522 18.8469 46.8754 18.8469 49.7786C18.8469 52.6817 21.2222 55.0352 24.1523 55.0352Z" stroke="#ECB43A" stroke-width="2" stroke-miterlimit="10"/>
<path d="M7.34724 54.948C10.1796 54.2045 11.8673 51.3267 11.1169 48.5204C10.3664 45.7141 7.46195 44.0419 4.62958 44.7854C1.79722 45.529 0.109496 48.4067 0.859956 51.2131C1.61042 54.0194 4.51487 55.6916 7.34724 54.948Z" stroke="#ECB43A" stroke-width="2" stroke-miterlimit="10"/>
<path d="M6.7969 49.8676C6.7969 50.3102 6.43426 50.6695 5.9875 50.6695C5.54074 50.6695 5.1781 50.3102 5.1781 49.8676C5.1781 49.4249 5.54074 49.0656 5.9875 49.0656C6.43426 49.0656 6.7969 49.4249 6.7969 49.8676Z" fill="#ECB43A"/>
<path d="M6.25691 49.9565L11.2736 50.2956L12.806 50.3992" stroke="#ECB43A" stroke-width="2" stroke-miterlimit="10"/>
<path d="M6.07845 49.6017L9.08186 45.5987L11.1997 42.784" stroke="#ECB43A" stroke-width="2" stroke-miterlimit="10"/>
<path d="M19.9314 40.4987L14.4543 41.7613" stroke="#ECB43A" stroke-width="2" stroke-miterlimit="10"/>
<path d="M15.6093 48.5317L21.033 42.5734" stroke="#ECB43A" stroke-width="2" stroke-miterlimit="10"/>
<path d="M15.8763 32.9363C16.7189 32.1014 16.7189 30.7478 15.8763 29.913C15.0337 29.0781 13.6676 29.0781 12.825 29.913C11.9824 30.7478 11.9824 32.1014 12.825 32.9363C13.6676 33.7711 15.0337 33.7711 15.8763 32.9363Z" stroke="#ECB43A" stroke-width="2" stroke-miterlimit="10"/>
<path d="M24.0625 49.7786L19.2959 39.0727L20.6453 38.7303" stroke="#ECB43A" stroke-width="2" stroke-miterlimit="10" stroke-linecap="round"/>
<path d="M19.2061 39.0874C19.8018 39.0874 20.285 38.4307 20.285 37.8405C20.285 37.0532 19.6404 36.4146 18.8458 36.4146H17.4066L14.3486 33.9197C13.2698 33.0288 11.651 33.3847 10.9314 34.9886L9.38765 38.8294C8.91702 39.8274 9.16711 41.0123 10.0015 41.7399L13.0902 44.433L12.7992 50.4927C12.7617 51.2687 13.3869 51.9175 14.1701 51.9175C14.8818 51.9175 15.4763 51.378 15.5377 50.6752L16.1482 43.72L12.9106 39.9783L14.169 37.1275L16.147 38.9094L19.5642 39.0874" stroke="#ECB43A" stroke-width="2" stroke-miterlimit="10"/>
<path d="M12.9117 51.9164H15.6093" stroke="#ECB43A" stroke-width="2" stroke-miterlimit="10" stroke-linecap="round"/>
<path d="M30.7162 44.0996C30.7162 44.0996 33.4979 42.0327 33.4979 38.5873C33.4979 38.2696 34.089 32.6819 22.1948 28.8422C20.5271 28.3038 18.8105 27.931 17.0746 27.6775C12.4877 27.0051 0.812807 24.6973 0.812807 18.606C0.812807 18.606 0.117089 10.6822 14.0258 10.6822H34.5404" stroke="#ECB43A" stroke-width="2" stroke-linecap="round" stroke-linejoin="round"/>
<path d="M36.9754 55.1242C36.9754 55.1242 53.3179 54.0902 53.3179 40.6552C53.3179 38.1863 53.5964 28.5291 30.6571 23.0765C26.9829 22.2035 23.2554 21.5818 19.4983 21.1774C15.7776 20.7776 8.64305 19.6062 9.15802 16.5403C9.15802 16.5403 9.37173 11.028 18.6525 10.6833" stroke="#ECB43A" stroke-width="2" stroke-linecap="round" stroke-linejoin="round"/>
<path d="M46.0152 24.463V13.4384" stroke="#ECB43A" stroke-width="2" stroke-linecap="round" stroke-linejoin="round"/>
<path d="M46.0152 18.9507C46.0152 18.9507 56.1224 18.3042 52.0265 8.87894C51.7605 8.26621 51.6503 7.59829 51.6866 6.93262C51.7935 4.95026 51.432 0.691574 46.363 0.691574C46.363 0.691574 40.7575 0.0743396 40.7461 6.43365C40.745 7.15902 40.5892 7.87312 40.263 8.52189C39.1046 10.8309 37.1436 16.7521 46.0152 18.9507Z" stroke="#ECB43A" stroke-width="2" stroke-linecap="round" stroke-linejoin="round"/>
</g>
<defs>
<clipPath id="clip0_4_93">
<rect width="54" height="55.8" fill="white"/>
</clipPath>
</defs>
</svg>
