<svg width="51" height="54" viewBox="0 0 51 54" fill="none" xmlns="http://www.w3.org/2000/svg">
<g clip-path="url(#clip0_4_88)">
<path d="M42.9984 13.3874L48.1186 12.4314C49.8938 12.129 51.128 10.535 50.9888 8.72303C50.8571 7.00621 49.4125 5.62431 47.6635 5.51294L44.6116 5.1756C44.1606 3.44415 42.9019 1.88097 41.1521 0.935583C39.0045 -0.225217 36.5009 -0.308132 34.1045 0.699034C29.581 2.60119 28.6071 7.61913 29.2094 11.886C28.7176 11.9396 28.2478 12.138 27.8607 12.4672C27.3516 12.8996 27.043 13.502 26.9915 14.1637L26.9547 14.6351C23.5033 15.7838 19.7794 16.5048 15.8681 16.7812L15.8297 16.7161C15.4916 16.143 14.9498 15.7366 14.3033 15.5683C13.6559 15.4009 12.9831 15.4927 12.4061 15.8285C11.7203 16.2284 11.3078 16.9063 11.2055 17.6347C9.85098 17.3315 8.23539 17.4347 6.78676 17.9525C5.49118 18.4167 3.74873 19.4165 2.80262 21.5455C1.20585 25.1417 0.0927766 27.3617 0.0821369 27.3828C-0.0111647 27.569 -0.0250781 27.7844 0.0436705 27.9803C0.112419 28.1754 0.258101 28.3363 0.447159 28.4241L5.49445 30.7726L2.75187 39.0876C2.04966 41.0808 2.95485 43.2829 4.85525 44.2087C5.40279 44.4754 5.98879 44.6022 6.57233 44.6022C8.09053 44.6022 9.59318 43.7478 10.3666 42.2838L15.896 31.4391C16.1947 30.8742 16.7488 30.4937 17.3773 30.4214L21.8427 29.9101V31.757L21.7118 31.7114C20.5226 31.2977 19.2253 31.8431 18.6991 32.986C18.4159 33.6022 18.4061 34.3127 18.6729 34.9353C18.8333 35.3093 19.0936 35.6239 19.4087 35.8718C19.1149 36.1026 18.8652 36.3961 18.6991 36.7578C18.4159 37.374 18.4061 38.0845 18.6729 38.7071C18.8333 39.0811 19.0936 39.3956 19.4087 39.6436C19.1149 39.8744 18.8652 40.1679 18.6991 40.5304C18.4159 41.1466 18.4061 41.8571 18.6729 42.4797C18.9405 43.1032 19.4627 43.5885 20.106 43.8112L21.8419 44.4144V48.1472H16.4165C13.5961 48.1472 11.3004 50.4265 11.3004 53.2285C11.3004 53.6537 11.6475 53.9983 12.0755 53.9983H38.1181C38.5462 53.9983 38.8932 53.6537 38.8932 53.2285C38.8932 50.4273 36.5983 48.1472 33.778 48.1472H28.3525V46.6775L28.4835 46.723C28.7519 46.8165 29.0253 46.8612 29.2946 46.8612C30.2194 46.8612 31.0894 46.3336 31.4962 45.4484C31.7793 44.833 31.7883 44.1226 31.5215 43.4999C31.3619 43.1276 31.1041 42.8138 30.7907 42.5659C31.0837 42.335 31.33 42.0375 31.4962 41.6758C31.7793 41.0604 31.7883 40.35 31.5215 39.7273C31.3619 39.355 31.1041 39.0412 30.7907 38.7933C31.0837 38.5624 31.33 38.2649 31.4962 37.9032C31.7793 37.2878 31.7883 36.5774 31.5215 35.9547C31.2547 35.3312 30.7326 34.8459 30.0893 34.6216L28.3165 34.0054C28.3313 33.9461 28.3525 33.89 28.3525 33.8266V29.515C28.3525 29.3898 28.3157 29.2768 28.2625 29.1728L31.2752 28.8281C31.2842 28.8314 31.294 28.8346 31.3038 28.8379C31.4184 28.8753 31.5338 28.9094 31.6492 28.9395L40.5047 38.6275C41.9738 40.2004 44.4176 40.3492 46.0684 38.9689C47.6349 37.6593 47.941 35.3117 46.7919 33.5274L41.4434 24.619C40.5734 23.2664 40.3557 21.6138 40.846 20.0847L42.9984 13.3833V13.3874ZM34.7093 2.11752C36.6629 1.29569 38.6869 1.35585 40.4114 2.28823C41.585 2.92228 42.473 3.89611 42.9223 4.98863L39.2778 4.58544C37.8374 4.50009 36.4788 5.20405 35.7283 6.43232L35.2274 7.25333L31.8554 13.5605C31.6713 13.0224 31.2997 12.5712 30.8201 12.268C30.8185 12.2404 30.8275 12.2144 30.8226 12.1867C30.591 10.8756 29.6915 4.22858 34.7093 2.11833V2.11752ZM26.8253 16.2983L26.6248 18.867C26.5111 20.3229 25.4725 21.5211 24.0402 21.8487L21.8697 22.3446C20.435 22.6697 18.9749 22.0446 18.2318 20.7846L16.7406 18.2566C20.2721 17.9542 23.6539 17.2973 26.8262 16.2967L26.8253 16.2983ZM13.1902 17.1559C13.3383 17.0706 13.502 17.0267 13.669 17.0267C13.75 17.0267 13.831 17.0372 13.9121 17.0575C14.1576 17.1218 14.3647 17.2762 14.4923 17.4933L16.8936 21.5634C17.9805 23.4078 20.1232 24.3256 22.2167 23.8451L24.3872 23.3485C26.4832 22.8697 28.0039 21.1163 28.17 18.9857L28.4614 15.2562V15.2546L28.5375 14.2815C28.5571 14.0312 28.6742 13.8019 28.869 13.6377C29.0629 13.4727 29.3117 13.3955 29.5597 13.4134C30.0835 13.454 30.4756 13.9092 30.4355 14.4295L30.0688 19.1328C29.8364 22.0909 27.7256 24.5255 24.8153 25.1913L22.6464 25.6871C22.4148 25.74 22.1832 25.7806 21.9524 25.8091C19.2581 26.1464 16.6293 24.8531 15.2535 22.5193L12.8522 18.45C12.587 18.0005 12.7392 17.4201 13.1918 17.1559H13.1902ZM1.81722 27.3617C2.27063 26.4261 3.13654 24.6093 4.22178 22.1665C4.9461 20.5359 6.30307 19.762 7.31383 19.4003C8.98917 18.8004 10.64 18.954 11.6024 19.3775L12.0133 20.0725L11.8725 20.0994C10.0638 20.3473 8.56359 21.5756 7.95385 23.3168L5.98142 29.298L1.81886 27.3609L1.81722 27.3617ZM33.7788 49.6884C35.4787 49.6884 36.9044 50.876 37.2596 52.4595H12.9357C13.2909 50.876 14.7166 49.6884 16.4165 49.6884H33.7788ZM23.392 48.1488V44.955L26.8024 46.1402V48.1488H23.392ZM30.086 44.8103C29.8953 45.2232 29.4247 45.4224 28.9958 45.272L20.6183 42.3602C20.3818 42.2781 20.1985 42.1074 20.0994 41.8782C20.0012 41.6498 20.0045 41.3994 20.1084 41.1726C20.2558 40.8523 20.5709 40.6613 20.9056 40.6613C21.003 40.6613 21.102 40.6776 21.1994 40.7109L29.5769 43.6227C29.8134 43.7056 29.9976 43.8763 30.0958 44.1055C30.194 44.3339 30.1899 44.5843 30.0868 44.8103H30.086ZM30.086 41.0385C29.8953 41.4514 29.4247 41.6498 28.9958 41.5002L20.6183 38.5885C20.3818 38.5063 20.1985 38.3356 20.0994 38.1064C20.0012 37.878 20.0045 37.6268 20.1084 37.4008C20.2558 37.0805 20.5709 36.8895 20.9056 36.8895C21.003 36.8895 21.102 36.9058 21.1994 36.9391L29.5769 39.8509C29.8134 39.933 29.9976 40.1045 30.0958 40.3337C30.194 40.5621 30.1899 40.8125 30.0868 41.0385H30.086ZM29.5761 36.0783C29.8126 36.1604 29.9968 36.3319 30.095 36.5611C30.1932 36.7895 30.1891 37.0399 30.086 37.2659C29.8953 37.6788 29.4247 37.8764 28.9958 37.7276L20.6183 34.815C20.3818 34.7329 20.1985 34.5622 20.0994 34.333C20.0012 34.1046 20.0045 33.8534 20.1084 33.6274C20.2558 33.3071 20.5709 33.1161 20.9056 33.1161C21.003 33.1161 21.102 33.1324 21.1994 33.1657L29.5769 36.0774L29.5761 36.0783ZM23.3756 32.2918C23.3789 32.2642 23.3912 32.2414 23.3912 32.213V29.7337L26.8384 29.3394C26.8237 29.3988 26.8024 29.4549 26.8024 29.5191V33.4827L23.3765 32.2918H23.3756ZM40.1241 25.4319L45.4726 34.3403C46.2034 35.4767 46.0267 36.9944 45.0691 37.7951C44.0493 38.647 42.5442 38.5535 41.6456 37.591L32.6379 27.7356C32.5315 27.6186 32.3907 27.5373 32.236 27.5023C32.0871 27.469 31.9389 27.4292 31.7392 27.3601L31.6451 27.3235C31.5305 27.282 31.4069 27.2682 31.2883 27.2812L17.1981 28.8932C16.0596 29.024 15.0587 29.7093 14.5169 30.7352L8.98672 41.5799C8.30823 42.865 6.75893 43.4219 5.53701 42.8277C4.33964 42.2448 3.77083 40.8548 4.21851 39.5818L9.42049 23.8102C9.8338 22.6315 10.8544 21.7934 12.1221 21.6186L12.8424 21.4821L13.9137 23.2981C15.4253 25.8627 18.1704 27.4023 21.1028 27.4023C21.4482 27.4023 21.7952 27.3804 22.1431 27.3373C22.4254 27.3023 22.7102 27.2528 22.991 27.1885L25.1615 26.6919C28.7356 25.8749 31.3292 22.8859 31.6132 19.2523L31.8006 16.8519C31.8538 16.799 31.9078 16.747 31.9447 16.6779L36.5745 8.01419L37.0525 7.2322C37.5035 6.49491 38.3219 6.07546 39.1428 6.12017L47.5277 7.04686C48.5474 7.1127 49.3708 7.88332 49.4436 8.84008C49.5214 9.85538 48.8396 10.7471 47.8444 10.9162L42.2569 11.9599C41.977 12.012 41.7495 12.2127 41.6628 12.4826L39.3703 19.6222C38.7385 21.5886 39.0184 23.7143 40.1249 25.4327L40.1241 25.4319Z" fill="#ECB43A"/>
</g>
<defs>
<clipPath id="clip0_4_88">
<rect width="51" height="54" fill="white"/>
</clipPath>
</defs>
</svg>
