<svg width="90" height="89" viewBox="0 0 90 89" fill="none" xmlns="http://www.w3.org/2000/svg">
<circle cx="45" cy="44.5" r="44.5" fill="#BD9234"/>
<g clip-path="url(#clip0_16_370)">
<path d="M51.0492 75H31.8677C27.8055 75 24.5 71.6678 24.5 67.5727V25.4273C24.5 21.3322 27.8055 18 31.8677 18H51.0492C55.1114 18 58.418 21.3322 58.418 25.4273V28.3781C58.418 29.0016 57.9163 29.5084 57.2967 29.5084C56.677 29.5084 56.1754 29.0027 56.1754 28.3781V25.4273C56.1754 22.5783 53.8753 20.2597 51.0492 20.2597H31.8677C29.0416 20.2597 26.7426 22.5783 26.7426 25.4273V67.5716C26.7426 70.4217 29.0416 72.7392 31.8677 72.7392H51.0492C53.8753 72.7392 56.1754 70.4217 56.1754 67.5716V63.1637C56.1754 62.5401 56.677 62.0333 57.2967 62.0333C57.9163 62.0333 58.418 62.5391 58.418 63.1637V67.5716C58.418 71.6667 55.1125 74.9989 51.0492 74.9989V75Z" fill="white"/>
<path d="M48.2454 27.103H34.6705C34.0509 27.103 33.5492 26.5973 33.5492 25.9727C33.5492 25.348 34.0509 24.8423 34.6705 24.8423H48.2454C48.865 24.8423 49.3667 25.348 49.3667 25.9727C49.3667 26.5973 48.865 27.103 48.2454 27.103Z" fill="white"/>
<path d="M43.7208 68.1577H39.1952C38.5755 68.1577 38.0739 67.652 38.0739 67.0273C38.0739 66.4027 38.5755 65.897 39.1952 65.897H43.7208C44.3405 65.897 44.8421 66.4027 44.8421 67.0273C44.8421 67.652 44.3405 68.1577 43.7208 68.1577Z" fill="white"/>
<path d="M43.404 58.354C43.1255 58.354 42.8481 58.28 42.6037 58.1333C42.1626 57.8675 41.9001 57.4079 41.9001 56.9043V53.99C39.0558 53.36 37.0842 51.1678 37.0842 48.6134V40.1972C37.0842 37.1361 39.9667 34.645 43.5103 34.645H74.0739C77.6175 34.645 80.5 37.1361 80.5 40.1972V48.6134C80.5 51.6746 77.6175 54.1657 74.0739 54.1657H53.2801C52.1184 54.1657 50.996 54.4432 50.0299 54.9671L44.1459 58.1665C43.9152 58.2918 43.6601 58.354 43.4051 58.354H43.404ZM43.5103 36.9057C41.2039 36.9057 39.3258 38.3822 39.3258 40.1972V48.6134C39.3258 50.1199 40.6257 51.4324 42.4846 51.8042C43.4444 51.996 44.1416 52.8103 44.1416 53.7414V55.6004L48.9649 52.9774C50.2552 52.2756 51.7475 51.9049 53.279 51.9049H74.0728C76.3792 51.9049 78.2573 50.4285 78.2573 48.6134V40.1972C78.2573 38.3822 76.3803 36.9057 74.0728 36.9057H43.5103Z" fill="white"/>
<path d="M47.4812 47.2463C47.2654 47.2463 47.0507 47.1638 46.8871 46.9977L42.6037 42.6787C42.2753 42.3476 42.2753 41.8108 42.6037 41.4797C42.9322 41.1486 43.4636 41.1486 43.7931 41.4797L48.0764 45.7987C48.4048 46.1298 48.4048 46.6666 48.0764 46.9977C47.9117 47.1638 47.698 47.2463 47.4823 47.2463H47.4812Z" fill="white"/>
<path d="M43.1979 47.2463C42.9821 47.2463 42.7674 47.1638 42.6037 46.9977C42.2753 46.6666 42.2753 46.1298 42.6037 45.7987L46.8871 41.4797C47.2155 41.1486 47.748 41.1486 48.0764 41.4797C48.4048 41.8108 48.4048 42.3476 48.0764 42.6787L43.7931 46.9977C43.6283 47.1638 43.4136 47.2463 43.1979 47.2463Z" fill="white"/>
<path d="M56.4496 47.2463C56.2338 47.2463 56.0191 47.1638 55.8555 46.9977L51.5721 42.6787C51.2437 42.3476 51.2437 41.8108 51.5721 41.4797C51.9005 41.1486 52.432 41.1486 52.7604 41.4797L57.0437 45.7987C57.3722 46.1298 57.3722 46.6666 57.0437 46.9977C56.879 47.1638 56.6654 47.2463 56.4496 47.2463Z" fill="white"/>
<path d="M52.1663 47.2463C51.9505 47.2463 51.7358 47.1638 51.5721 46.9977C51.2437 46.6666 51.2437 46.1298 51.5721 45.7987L55.8555 41.4797C56.1839 41.1486 56.7164 41.1486 57.0448 41.4797C57.3732 41.8108 57.3732 42.3476 57.0448 42.6787L52.7615 46.9977C52.5967 47.1638 52.3831 47.2463 52.1673 47.2463H52.1663Z" fill="white"/>
<path d="M65.418 47.2463C65.2022 47.2463 64.9875 47.1638 64.8238 46.9977L60.5405 42.6787C60.2121 42.3476 60.2121 41.8108 60.5405 41.4797C60.8689 41.1486 61.4004 41.1486 61.7288 41.4797L66.0121 45.7987C66.3405 46.1298 66.3405 46.6666 66.0121 46.9977C65.8474 47.1638 65.6337 47.2463 65.418 47.2463Z" fill="white"/>
<path d="M61.1337 47.2463C60.9179 47.2463 60.7032 47.1638 60.5395 46.9977C60.2111 46.6666 60.2111 46.1298 60.5395 45.7987L64.8229 41.4797C65.1513 41.1486 65.6838 41.1486 66.0122 41.4797C66.3406 41.8108 66.3406 42.3476 66.0122 42.6787L61.7289 46.9977C61.5641 47.1638 61.3505 47.2463 61.1347 47.2463H61.1337Z" fill="white"/>
<path d="M74.3854 47.2463C74.1696 47.2463 73.9549 47.1638 73.7912 46.9977L69.5079 42.6787C69.1795 42.3476 69.1795 41.8108 69.5079 41.4797C69.8363 41.1486 70.3678 41.1486 70.6962 41.4797L74.9795 45.7987C75.3079 46.1298 75.3079 46.6666 74.9795 46.9977C74.8148 47.1638 74.6011 47.2463 74.3854 47.2463Z" fill="white"/>
<path d="M70.1021 47.2463C69.8863 47.2463 69.6716 47.1638 69.5079 46.9977C69.1795 46.6666 69.1795 46.1298 69.5079 45.7987L73.7912 41.4797C74.1197 41.1486 74.6511 41.1486 74.9806 41.4797C75.309 41.8108 75.309 42.3476 74.9806 42.6787L70.6973 46.9977C70.5325 47.1638 70.3189 47.2463 70.1031 47.2463H70.1021Z" fill="white"/>
</g>
<defs>
<clipPath id="clip0_16_370">
<rect x="24.5" y="18" width="56" height="57" fill="white"/>
</clipPath>
</defs>
</svg>
