<svg width="49" height="68" viewBox="0 0 49 68" fill="none" xmlns="http://www.w3.org/2000/svg">
<g clip-path="url(#clip0_5_817)">
<path d="M23.5779 53.4813H15.2347C8.09837 53.4813 2.2927 47.6935 2.2927 40.5795V25.3963C2.2927 24.7651 1.77963 24.2537 1.14647 24.2537C0.513305 24.2537 0 24.7649 0 25.3961V40.5792C0 48.9534 6.83423 55.7666 15.2347 55.7666H23.5779C24.2111 55.7666 24.7241 55.2551 24.7241 54.6239C24.7241 53.9927 24.2111 53.4813 23.5779 53.4813Z" fill="#ECB43A"/>
<path d="M19.0466 16.0524C23.4861 16.0524 27.0979 12.4518 27.0979 8.02594C27.0979 3.60011 23.4858 0 19.0466 0C14.6074 0 10.995 3.6006 10.995 8.02619C10.995 12.4518 14.6069 16.0526 19.0466 16.0526V16.0524ZM19.0466 2.28553C22.2219 2.28553 24.8053 4.86079 24.8053 8.02619C24.8053 11.1916 22.2219 13.7671 19.0466 13.7671C15.8713 13.7671 13.2877 11.1918 13.2877 8.02619C13.2877 4.86054 15.871 2.28553 19.0466 2.28553Z" fill="#ECB43A"/>
<path d="M27.7462 33.6338L39.408 34.5831C40.6322 34.681 41.8537 34.264 42.7573 33.4337C43.6609 32.6036 44.179 31.4247 44.179 30.1995C44.179 27.9706 42.5044 26.0928 40.2833 25.8315L29.1975 24.5298L21.3079 20.1462L21.1697 20.069C18.774 18.7226 17.3766 18.1482 16.4971 18.1482H15.8874C13.2568 18.1482 10.9446 19.1235 9.01487 21.0475C7.11294 22.9432 5.91287 25.5563 5.63514 28.4058C5.20564 32.8486 4.98785 35.6492 4.98785 36.7297C4.98785 37.0131 4.98639 37.2861 4.98444 37.5515C4.9725 39.5316 4.96203 41.2415 5.70068 43.4369C7.07542 47.5322 11.3344 50.7399 15.3967 50.7399H27.9055V63.1458C27.9055 64.4414 28.4125 65.6601 29.3327 66.5773C30.2377 67.4798 31.4395 67.9847 32.717 67.9998C32.7353 67.9998 32.754 67.9998 32.7723 67.9998C34.0221 67.9998 35.2131 67.5034 36.1321 66.598C37.0934 65.6508 37.6449 64.3443 37.6449 63.0134V49.5968C37.6449 47.1313 36.6834 44.8178 34.9383 43.0841C33.1933 41.3442 30.8731 40.3862 28.4052 40.3862H23.2955C23.0195 38.3192 22.7781 35.2451 22.6163 31.7507L27.4351 33.5636C27.5352 33.6012 27.64 33.6248 27.7465 33.6335L27.7462 33.6338ZM21.1758 41.7173C21.2679 42.2681 21.7461 42.6722 22.3065 42.6722H28.405C30.2604 42.6722 32.0047 43.3927 33.318 44.702C34.6297 46.0052 35.352 47.7438 35.352 49.5973V63.0139C35.352 63.7379 35.0489 64.4519 34.5203 64.9728C34.0272 65.4587 33.4009 65.7303 32.7436 65.7142C32.0683 65.7065 31.4327 65.4391 30.9532 64.9614C30.466 64.4757 30.1978 63.8309 30.1978 63.1458V49.5973C30.1978 48.9661 29.6847 48.4546 29.0515 48.4546H15.3965C12.3641 48.4546 8.91961 45.8247 7.87424 42.711C7.25667 40.8753 7.2652 39.4869 7.27689 37.5654C7.27835 37.2956 7.2803 37.018 7.2803 36.7297C7.2803 36.0368 7.39066 34.0685 7.91688 28.6261C8.1432 26.3034 9.10866 24.1861 10.6357 22.6637C12.141 21.1633 13.8587 20.434 15.8871 20.434H16.4947C16.6107 20.4379 17.3279 20.5341 20.044 22.0602L28.2797 26.6366C28.4108 26.7094 28.555 26.7558 28.7039 26.7733L40.0151 28.1015C41.0822 28.227 41.8866 29.1288 41.8866 30.1995C41.8866 30.7967 41.6442 31.3485 41.2035 31.7531C40.763 32.1574 40.1898 32.3529 39.5951 32.3051L28.0939 31.3691L19.6676 28.1991C19.0749 27.9752 18.4134 28.2742 18.1903 28.8648C17.9666 29.4554 18.2658 30.1148 18.858 30.3375L20.2835 30.8737C20.4718 35.4586 20.8011 39.4742 21.1763 41.7175L21.1758 41.7173Z" fill="#ECB43A"/>
<path d="M44.3586 36.1235C41.7994 36.1235 39.7176 38.199 39.7176 40.7502V42.558C39.7176 43.1892 40.2307 43.7007 40.8639 43.7007C41.497 43.7007 42.0101 43.1892 42.0101 42.558V40.7502C42.0101 39.4592 43.0633 38.4091 44.3583 38.4091C45.6534 38.4091 46.7071 39.4592 46.7071 40.7502V66.4535C46.7071 67.0847 47.2201 67.5961 47.8533 67.5961C48.4864 67.5961 48.9995 67.0847 48.9995 66.4535V40.7502C48.9995 38.199 46.9173 36.1235 44.3581 36.1235H44.3586Z" fill="#ECB43A"/>
</g>
<defs>
<clipPath id="clip0_5_817">
<rect width="49" height="68" fill="white"/>
</clipPath>
</defs>
</svg>
