<svg width="76" height="76" viewBox="0 0 76 76" fill="none" xmlns="http://www.w3.org/2000/svg">
<g clip-path="url(#clip0_16_310)">
<path d="M32.6825 44.9288L21.9884 34.2346L17.0068 39.2149L32.6825 54.8905L58.9919 28.5798L54.0117 23.5996L32.6825 44.9288Z" fill="#BD9234"/>
<path d="M73.0126 23.2077C71.0981 18.6823 68.3588 14.6182 64.8703 11.1297C61.3818 7.64125 57.3177 4.90186 52.7923 2.98737C48.105 1.00478 43.1286 0 37.9994 0C32.8701 0 27.8937 1.00478 23.2077 2.98737C18.6823 4.90186 14.6182 7.64125 11.1297 11.1297C7.64125 14.6182 4.90186 18.6823 2.98737 23.2077C1.00478 27.895 0 32.8714 0 37.9994C0 43.1274 1.00478 48.105 2.98737 52.7923C4.90186 57.3177 7.64125 61.3818 11.1297 64.8703C14.6182 68.3588 18.6823 71.0981 23.2077 73.0126C27.895 74.9952 32.8714 76 37.9994 76C43.1274 76 48.105 74.9952 52.791 73.0126C57.3164 71.0981 61.3805 68.3588 64.869 64.8703C68.3575 61.3818 71.0969 57.3177 73.0113 52.7923C74.9939 48.105 75.9987 43.1286 75.9987 37.9994C75.9987 32.8701 74.9939 27.8937 73.0113 23.2064L73.0126 23.2077ZM38.0006 68.9562C20.9309 68.9562 7.04506 55.0691 7.04506 38.0006C7.04506 20.9322 20.9309 7.04377 37.9994 7.04377C55.0678 7.04377 68.9549 20.9309 68.9549 37.9994C68.9549 55.0678 55.0678 68.9549 37.9994 68.9549L38.0006 68.9562Z" fill="#BD9234"/>
</g>
<defs>
<clipPath id="clip0_16_310">
<rect width="76" height="76" fill="white"/>
</clipPath>
</defs>
</svg>
