<svg width="56" height="65" viewBox="0 0 56 65" fill="none" xmlns="http://www.w3.org/2000/svg">
<path d="M35.7342 53.8246C35.5122 53.8177 35.2938 53.8143 35.0874 53.8126C20.1167 52.4713 13.9717 58.98 22.8303 62.7907C25.2439 63.7072 44.0344 63.126 47.7554 63.126C50.0182 63.126 51.877 61.274 51.877 59.0109C51.877 53.9158 44.9586 50.2324 41.2012 47.1199C39.1119 45.3882 36.6323 43.5964 36.2041 41.8372C35.7758 40.0781 37.397 37.8718 37.397 34.3449C40.2545 41.6601 41.3815 40.6301 48.2063 47.1233C49.7547 48.597 52.2706 48.6039 53.8276 47.1388C55.3847 45.6737 55.3916 43.292 53.8433 41.8183L47.7988 36.068C42.219 30.7595 42.8242 22.2956 37.2479 22.3764H18.7522C13.1759 22.2939 13.781 30.7595 8.20122 36.068L2.15675 41.8183C0.608358 43.292 0.615309 45.6737 2.17237 47.1388C3.72943 48.6039 6.24534 48.597 7.79373 47.1233C11.65 43.4537 17.9181 39.6241 18.603 34.3449C18.603 37.8718 20.2225 40.0798 19.7942 41.8372C19.3659 43.5964 16.8882 45.3882 14.7988 47.1199C11.0414 50.2324 4.12303 53.9175 4.12303 59.0109C4.12303 61.2722 5.9818 63.126 8.24457 63.126H16.5015M27.3177 1C22.6032 1 18.7799 4.79173 18.7799 9.46734C18.7799 14.143 22.6032 17.9347 27.3177 17.9347C32.0322 17.9347 35.8555 14.143 35.8555 9.46734C35.8555 4.79173 32.0322 1 27.3177 1Z" stroke="#ECB43A" stroke-width="2" stroke-linecap="round" stroke-linejoin="round"/>
</svg>
